<svg width="32" height="32" viewBox="0 0 32 32" fill="none" xmlns="http://www.w3.org/2000/svg">
<g clip-path="url(#clip0)">
<path d="M26.9433 24H22.3593V19.1264C22.3658 18.8304 22.2547 18.544 22.0505 18.3296C21.9563 18.2248 21.8407 18.1413 21.7116 18.0847C21.5824 18.0282 21.4427 17.9998 21.3017 18.0016C21.1605 17.9996 21.0205 18.0278 20.8911 18.0844C20.7616 18.141 20.6458 18.2246 20.5513 18.3296C20.3472 18.544 20.2361 18.8304 20.2425 19.1264V24.0016H15.8937C15.7528 23.9998 15.6131 24.0282 15.4839 24.0847C15.3548 24.1413 15.2392 24.2248 15.1449 24.3296C14.9408 24.544 14.8297 24.8304 14.8361 25.1264C14.8297 25.4224 14.9408 25.7089 15.1449 25.9232C15.2392 26.028 15.3548 26.1115 15.4839 26.1681C15.6131 26.2246 15.7528 26.253 15.8937 26.2512H20.2425V30.8752C20.2361 31.1712 20.3472 31.4577 20.5513 31.672C20.6458 31.777 20.7616 31.8606 20.8911 31.9172C21.0205 31.9738 21.1605 32.002 21.3017 32C21.5945 32 21.8457 31.8912 22.0505 31.672C22.2547 31.4577 22.3658 31.1712 22.3593 30.8752V26.2512H26.9433C27.2377 26.2512 27.4873 26.1408 27.6921 25.9232C27.8963 25.7089 28.0074 25.4224 28.0009 25.1264C28.0074 24.8304 27.8963 24.544 27.6921 24.3296C27.5979 24.2248 27.4823 24.1413 27.3532 24.0847C27.224 24.0282 27.0843 23.9998 26.9433 24.0016V24ZM27.7689 8.0432L21.3289 0.769602L20.6249 0.00320242H6.04895C5.77695 0.00320242 5.47295 -0.0127976 5.20735 0.0304024C4.88869 0.0756501 4.59745 0.235492 4.38815 0.480002C3.93855 0.988802 4.00415 1.6272 4.00415 2.2528V29.7488C4.00415 30.3744 3.93215 31.0512 4.38815 31.5248C4.84415 31.9984 5.14975 31.9984 5.73695 31.9984H13.7769C14.0713 31.9984 14.3209 31.8896 14.5273 31.6704C14.7315 31.4561 14.8426 31.1696 14.8361 30.8736C14.8426 30.5776 14.7315 30.2912 14.5273 30.0768C14.4329 29.9718 14.3171 29.8882 14.1876 29.8316C14.0582 29.775 13.9182 29.7468 13.7769 29.7488H6.15295L6.14335 2.1824H17.7833V7.9312C17.7833 8.5568 18.0265 9.12 18.4089 9.5248C18.7929 9.9296 19.3209 10.1808 19.9081 10.1808H25.8841V16.8768C25.8777 17.1728 25.9888 17.4593 26.1929 17.6736C26.2872 17.7784 26.4028 17.8619 26.5319 17.9185C26.6611 17.975 26.8008 18.0034 26.9417 18.0016C27.2361 18.0016 27.4857 17.8912 27.6921 17.6736C27.8958 17.459 28.0062 17.1726 27.9993 16.8768V8.76L28.0009 8.3136L27.7689 8.0432ZM20.0297 7.768C19.9641 7.6832 19.9241 7.5344 19.9097 7.32V2.432L24.8041 7.9312H20.4169C20.2249 7.9056 20.0969 7.8512 20.0297 7.7664V7.768Z" fill="black"/>
</g>
<defs>
<clipPath id="clip0">
<rect width="32" height="32" fill="white"/>
</clipPath>
</defs>
</svg>
