<svg width="183" height="56" viewBox="0 0 183 56" fill="none" xmlns="http://www.w3.org/2000/svg">
<rect x="0.24292" width="182.757" height="55.4969" rx="5" fill="black"/>
<path d="M66.924 19.0301C66.6848 19.3702 66.3092 19.6356 65.7971 19.8262C65.2888 20.0168 64.7188 20.1121 64.0871 20.1121C63.448 20.1121 62.8799 19.9589 62.3828 19.6524C61.8857 19.3459 61.5007 18.9123 61.2278 18.3517C60.955 17.791 60.8167 17.1482 60.8129 16.4231V15.3915C60.8129 14.2589 61.0989 13.3656 61.6707 12.7115C62.2426 12.0537 63.0107 11.7248 63.975 11.7248C64.816 11.7248 65.4925 11.9397 66.0046 12.3695C66.5166 12.7956 66.8212 13.3843 66.9184 14.1356H66.2288C66.1279 13.5376 65.8831 13.0853 65.4944 12.7788C65.1094 12.4686 64.6048 12.3135 63.9806 12.3135C63.2181 12.3135 62.6145 12.5845 62.1697 13.1264C61.7249 13.6684 61.5025 14.4327 61.5025 15.4195V16.3838C61.5025 17.0043 61.6072 17.5537 61.8165 18.0321C62.0296 18.5068 62.3323 18.875 62.7248 19.1366C63.121 19.3982 63.5751 19.5291 64.0871 19.5291C64.6814 19.5291 65.1916 19.4356 65.6177 19.2487C65.8943 19.1254 66.0999 18.9815 66.2344 18.817V16.709H64.0423V16.1259H66.924V19.0301ZM71.0728 20.1121C70.557 20.1121 70.0898 19.985 69.6712 19.7309C69.2563 19.4767 68.933 19.1235 68.7013 18.6713C68.4696 18.2153 68.3537 17.7051 68.3537 17.1407V16.8996C68.3537 16.3165 68.4658 15.7914 68.6901 15.3242C68.9181 14.857 69.2339 14.4907 69.6376 14.2253C70.0412 13.9562 70.4786 13.8216 70.9495 13.8216C71.6858 13.8216 72.2689 14.0739 72.6987 14.5785C73.1323 15.0794 73.3491 15.7652 73.3491 16.6361V17.0117H69.0209V17.1407C69.0209 17.8284 69.2171 18.4021 69.6095 18.8619C70.0057 19.3179 70.5029 19.5459 71.1009 19.5459C71.4597 19.5459 71.7755 19.4805 72.0484 19.3496C72.325 19.2188 72.5754 19.0095 72.7996 18.7217L73.2201 19.0413C72.7268 19.7552 72.011 20.1121 71.0728 20.1121ZM70.9495 14.3935C70.4449 14.3935 70.0188 14.5785 69.6712 14.9485C69.3274 15.3186 69.118 15.8157 69.0433 16.4399H72.6819V16.367C72.6632 15.7839 72.4969 15.3092 72.1829 14.9429C71.869 14.5766 71.4578 14.3935 70.9495 14.3935ZM75.6982 12.3808V13.9338H76.9541V14.4832H75.6982V18.5255C75.6982 18.8619 75.758 19.1123 75.8776 19.2768C76.001 19.4412 76.2047 19.5234 76.4887 19.5234C76.6009 19.5234 76.7821 19.5048 77.0326 19.4674L77.0606 20.0168C76.8849 20.0804 76.6457 20.1121 76.343 20.1121C75.8832 20.1121 75.5487 19.9794 75.3394 19.7141C75.1301 19.445 75.0254 19.0506 75.0254 18.5311V14.4832H73.9097V13.9338H75.0254V12.3808H75.6982ZM81.8878 20H81.215V13.9338H81.8878V20ZM81.0973 12.1789C81.0973 12.0518 81.1384 11.9453 81.2206 11.8594C81.3028 11.7697 81.415 11.7248 81.557 11.7248C81.699 11.7248 81.8112 11.7697 81.8934 11.8594C81.9794 11.9453 82.0223 12.0518 82.0223 12.1789C82.0223 12.306 81.9794 12.4125 81.8934 12.4985C81.8112 12.5845 81.699 12.6274 81.557 12.6274C81.415 12.6274 81.3028 12.5845 81.2206 12.4985C81.1384 12.4125 81.0973 12.306 81.0973 12.1789ZM84.7583 12.3808V13.9338H86.0142V14.4832H84.7583V18.5255C84.7583 18.8619 84.8181 19.1123 84.9377 19.2768C85.0611 19.4412 85.2648 19.5234 85.5488 19.5234C85.661 19.5234 85.8422 19.5048 86.0927 19.4674L86.1207 20.0168C85.945 20.0804 85.7058 20.1121 85.4031 20.1121C84.9433 20.1121 84.6088 19.9794 84.3995 19.7141C84.1902 19.445 84.0855 19.0506 84.0855 18.5311V14.4832H82.9698V13.9338H84.0855V12.3808H84.7583ZM89.8266 16.8772C89.8266 16.2941 89.9387 15.769 90.163 15.3017C90.391 14.8345 90.7106 14.472 91.1217 14.2141C91.5366 13.9525 92.0057 13.8216 92.5289 13.8216C93.3363 13.8216 93.9904 14.1057 94.4912 14.6738C94.9921 15.2382 95.2425 15.9876 95.2425 16.922V17.0622C95.2425 17.649 95.1285 18.1779 94.9005 18.6488C94.6762 19.116 94.3585 19.4767 93.9474 19.7309C93.5362 19.985 93.0672 20.1121 92.5402 20.1121C91.7366 20.1121 91.0825 19.8299 90.5779 19.2655C90.077 18.6974 89.8266 17.9462 89.8266 17.0117V16.8772ZM90.4994 17.0622C90.4994 17.7873 90.6863 18.3835 91.06 18.8507C91.4375 19.3141 91.9309 19.5459 92.5402 19.5459C93.1457 19.5459 93.6353 19.3141 94.0091 18.8507C94.3866 18.3835 94.5753 17.7686 94.5753 17.0061V16.8772C94.5753 16.4137 94.4893 15.9895 94.3174 15.6045C94.1455 15.2195 93.9044 14.9224 93.5942 14.7131C93.2839 14.5 92.9289 14.3935 92.5289 14.3935C91.9309 14.3935 91.4431 14.629 91.0656 15.0999C90.6881 15.5671 90.4994 16.1801 90.4994 16.9388V17.0622ZM97.272 13.9338L97.2945 14.971C97.5225 14.5972 97.8065 14.3131 98.1467 14.1188C98.4868 13.9207 98.8624 13.8216 99.2736 13.8216C99.9239 13.8216 100.408 14.0048 100.726 14.3711C101.043 14.7374 101.204 15.2868 101.208 16.0194V20H100.541V16.0138C100.537 15.4718 100.421 15.0681 100.193 14.8028C99.9688 14.5374 99.6081 14.4047 99.111 14.4047C98.6961 14.4047 98.3279 14.5355 98.0065 14.7972C97.6888 15.0551 97.4533 15.4045 97.3001 15.8456V20H96.6329V13.9338H97.272ZM106.781 12.3808V13.9338H108.037V14.4832H106.781V18.5255C106.781 18.8619 106.84 19.1123 106.96 19.2768C107.083 19.4412 107.287 19.5234 107.571 19.5234C107.683 19.5234 107.865 19.5048 108.115 19.4674L108.143 20.0168C107.967 20.0804 107.728 20.1121 107.425 20.1121C106.966 20.1121 106.631 19.9794 106.422 19.7141C106.213 19.445 106.108 19.0506 106.108 18.5311V14.4832H104.992V13.9338H106.108V12.3808H106.781ZM110.094 14.9598C110.315 14.5972 110.597 14.3169 110.941 14.1188C111.285 13.9207 111.66 13.8216 112.068 13.8216C112.718 13.8216 113.202 14.0048 113.52 14.3711C113.837 14.7374 113.998 15.2868 114.002 16.0194V20H113.335V16.0138C113.331 15.4718 113.215 15.0681 112.987 14.8028C112.763 14.5374 112.402 14.4047 111.905 14.4047C111.49 14.4047 111.122 14.5355 110.801 14.7972C110.483 15.0551 110.247 15.4045 110.094 15.8456V20H109.427V11.3884H110.094V14.9598ZM118.078 20.1121C117.562 20.1121 117.095 19.985 116.676 19.7309C116.261 19.4767 115.938 19.1235 115.706 18.6713C115.474 18.2153 115.359 17.7051 115.359 17.1407V16.8996C115.359 16.3165 115.471 15.7914 115.695 15.3242C115.923 14.857 116.239 14.4907 116.643 14.2253C117.046 13.9562 117.483 13.8216 117.954 13.8216C118.691 13.8216 119.274 14.0739 119.704 14.5785C120.137 15.0794 120.354 15.7652 120.354 16.6361V17.0117H116.026V17.1407C116.026 17.8284 116.222 18.4021 116.614 18.8619C117.011 19.3179 117.508 19.5459 118.106 19.5459C118.465 19.5459 118.78 19.4805 119.053 19.3496C119.33 19.2188 119.58 19.0095 119.805 18.7217L120.225 19.0413C119.732 19.7552 119.016 20.1121 118.078 20.1121ZM117.954 14.3935C117.45 14.3935 117.024 14.5785 116.676 14.9485C116.332 15.3186 116.123 15.8157 116.048 16.4399H119.687V16.367C119.668 15.7839 119.502 15.3092 119.188 14.9429C118.874 14.5766 118.463 14.3935 117.954 14.3935Z" fill="white"/>
<path d="M68.4639 37.0205H63.5068L62.4697 40H60.1582L64.9922 27.2031H66.9873L71.8301 40H69.5098L68.4639 37.0205ZM64.1309 35.2275H67.8398L65.9854 29.9189L64.1309 35.2275ZM80.9883 35.3418C80.9883 36.8125 80.6543 37.9873 79.9863 38.8662C79.3184 39.7393 78.4219 40.1758 77.2969 40.1758C76.2539 40.1758 75.4189 39.833 74.792 39.1475V43.6562H72.6562V30.4902H74.625L74.7129 31.457C75.3398 30.6953 76.1924 30.3145 77.2705 30.3145C78.4307 30.3145 79.3389 30.748 79.9951 31.6152C80.6572 32.4766 80.9883 33.6748 80.9883 35.21V35.3418ZM78.8613 35.1572C78.8613 34.208 78.6709 33.4551 78.29 32.8984C77.915 32.3418 77.376 32.0635 76.6729 32.0635C75.7998 32.0635 75.1729 32.4238 74.792 33.1445V37.3633C75.1787 38.1016 75.8115 38.4707 76.6904 38.4707C77.3701 38.4707 77.9004 38.1982 78.2812 37.6533C78.668 37.1025 78.8613 36.2705 78.8613 35.1572ZM91.1309 35.3418C91.1309 36.8125 90.7969 37.9873 90.1289 38.8662C89.4609 39.7393 88.5645 40.1758 87.4395 40.1758C86.3965 40.1758 85.5615 39.833 84.9346 39.1475V43.6562H82.7988V30.4902H84.7676L84.8555 31.457C85.4824 30.6953 86.335 30.3145 87.4131 30.3145C88.5732 30.3145 89.4814 30.748 90.1377 31.6152C90.7998 32.4766 91.1309 33.6748 91.1309 35.21V35.3418ZM89.0039 35.1572C89.0039 34.208 88.8135 33.4551 88.4326 32.8984C88.0576 32.3418 87.5186 32.0635 86.8154 32.0635C85.9424 32.0635 85.3154 32.4238 84.9346 33.1445V37.3633C85.3213 38.1016 85.9541 38.4707 86.833 38.4707C87.5127 38.4707 88.043 38.1982 88.4238 37.6533C88.8105 37.1025 89.0039 36.2705 89.0039 35.1572ZM99.8408 36.7041C99.8408 36.1416 99.6416 35.708 99.2432 35.4033C98.8506 35.0986 98.1387 34.791 97.1074 34.4805C96.0762 34.1699 95.2559 33.8242 94.6465 33.4434C93.4805 32.7109 92.8975 31.7559 92.8975 30.5781C92.8975 29.5469 93.3164 28.6973 94.1543 28.0293C94.998 27.3613 96.0908 27.0273 97.4326 27.0273C98.3232 27.0273 99.1172 27.1914 99.8145 27.5195C100.512 27.8477 101.06 28.3164 101.458 28.9258C101.856 29.5293 102.056 30.2002 102.056 30.9385H99.8408C99.8408 30.2705 99.6299 29.749 99.208 29.374C98.792 28.9932 98.1943 28.8027 97.415 28.8027C96.6885 28.8027 96.123 28.958 95.7188 29.2686C95.3203 29.5791 95.1211 30.0127 95.1211 30.5693C95.1211 31.0381 95.3379 31.4307 95.7715 31.7471C96.2051 32.0576 96.9199 32.3623 97.916 32.6611C98.9121 32.9541 99.7119 33.291 100.315 33.6719C100.919 34.0469 101.361 34.4805 101.643 34.9727C101.924 35.459 102.064 36.0303 102.064 36.6865C102.064 37.7529 101.654 38.6025 100.834 39.2354C100.02 39.8623 98.9121 40.1758 97.5117 40.1758C96.5859 40.1758 95.7334 40.0059 94.9541 39.666C94.1807 39.3203 93.5771 38.8457 93.1436 38.2422C92.7158 37.6387 92.502 36.9355 92.502 36.1328H94.7256C94.7256 36.8594 94.9658 37.4219 95.4463 37.8203C95.9268 38.2188 96.6152 38.418 97.5117 38.418C98.2852 38.418 98.8652 38.2627 99.252 37.9521C99.6445 37.6357 99.8408 37.2197 99.8408 36.7041ZM106.485 28.1787V30.4902H108.164V32.0723H106.485V37.3809C106.485 37.7441 106.556 38.0078 106.696 38.1719C106.843 38.3301 107.101 38.4092 107.47 38.4092C107.716 38.4092 107.965 38.3799 108.217 38.3213V39.9736C107.73 40.1084 107.262 40.1758 106.811 40.1758C105.17 40.1758 104.35 39.2705 104.35 37.46V32.0723H102.785V30.4902H104.35V28.1787H106.485ZM109.14 35.1572C109.14 34.2256 109.324 33.3877 109.693 32.6436C110.062 31.8936 110.581 31.3193 111.249 30.9209C111.917 30.5166 112.685 30.3145 113.552 30.3145C114.835 30.3145 115.875 30.7275 116.672 31.5537C117.475 32.3799 117.908 33.4756 117.973 34.8408L117.981 35.3418C117.981 36.2793 117.8 37.1172 117.437 37.8555C117.079 38.5938 116.563 39.165 115.89 39.5693C115.222 39.9736 114.448 40.1758 113.569 40.1758C112.228 40.1758 111.152 39.7305 110.344 38.8398C109.541 37.9434 109.14 36.751 109.14 35.2627V35.1572ZM111.275 35.3418C111.275 36.3203 111.478 37.0879 111.882 37.6445C112.286 38.1953 112.849 38.4707 113.569 38.4707C114.29 38.4707 114.85 38.1895 115.248 37.627C115.652 37.0645 115.854 36.2412 115.854 35.1572C115.854 34.1963 115.646 33.4346 115.23 32.8721C114.82 32.3096 114.261 32.0283 113.552 32.0283C112.854 32.0283 112.301 32.3066 111.891 32.8633C111.48 33.4141 111.275 34.2402 111.275 35.3418ZM124.767 32.4414C124.485 32.3945 124.195 32.3711 123.896 32.3711C122.918 32.3711 122.259 32.7461 121.919 33.4961V40H119.783V30.4902H121.822L121.875 31.5537C122.391 30.7275 123.105 30.3145 124.02 30.3145C124.324 30.3145 124.576 30.3555 124.775 30.4375L124.767 32.4414ZM130.128 40.1758C128.774 40.1758 127.676 39.751 126.832 38.9014C125.994 38.0459 125.575 36.9092 125.575 35.4912V35.2275C125.575 34.2783 125.757 33.4316 126.12 32.6875C126.489 31.9375 127.005 31.3545 127.667 30.9385C128.329 30.5225 129.067 30.3145 129.882 30.3145C131.177 30.3145 132.176 30.7275 132.879 31.5537C133.588 32.3799 133.942 33.5488 133.942 35.0605V35.9219H127.729C127.793 36.707 128.054 37.3281 128.511 37.7852C128.974 38.2422 129.554 38.4707 130.251 38.4707C131.229 38.4707 132.026 38.0752 132.642 37.2842L133.793 38.3828C133.412 38.9512 132.902 39.3936 132.264 39.71C131.631 40.0205 130.919 40.1758 130.128 40.1758ZM129.873 32.0283C129.287 32.0283 128.812 32.2334 128.449 32.6436C128.092 33.0537 127.863 33.625 127.764 34.3574H131.833V34.1992C131.786 33.4844 131.596 32.9453 131.262 32.582C130.928 32.2129 130.465 32.0283 129.873 32.0283Z" fill="white"/>
<path d="M21.625 32.5418C21.3045 32.5418 20.9971 32.4145 20.7705 32.1879C20.5439 31.9613 20.4166 31.654 20.4166 31.3335C20.4166 31.013 20.5439 30.7057 20.7705 30.4791C20.9971 30.2525 21.3045 30.1252 21.625 30.1252H34.3125C35.5208 30.1252 36.7291 32.5418 36.125 32.5418H21.625ZM38.5416 32.5418C38.2212 32.5418 37.9138 32.4145 37.6872 32.1879C37.4606 31.9613 37.3333 31.654 37.3333 31.3335C37.3333 31.013 37.4606 30.7057 37.6872 30.4791C37.9138 30.2525 38.2212 30.1252 38.5416 30.1252H43.375C43.6954 30.1252 44.0028 30.2525 44.2294 30.4791C44.456 30.7057 44.5833 31.013 44.5833 31.3335C44.5833 31.654 44.456 31.9613 44.2294 32.1879C44.0028 32.4145 43.6954 32.5418 43.375 32.5418H38.5416ZM33.2648 16.2306C33.4247 15.9527 33.6885 15.7498 33.998 15.6664C34.3076 15.583 34.6376 15.626 34.9154 15.7859C35.1933 15.9458 35.3962 16.2095 35.4796 16.5191C35.563 16.8286 35.52 17.1586 35.3601 17.4365L27.0141 31.9316C26.935 32.0692 26.8296 32.1899 26.7039 32.2867C26.5781 32.3835 26.4346 32.4546 26.2814 32.496C26.1281 32.5373 25.9683 32.5481 25.8109 32.5277C25.6535 32.5072 25.5017 32.456 25.3641 32.3769C25.2266 32.2978 25.1059 32.1924 25.0091 32.0666C24.9123 31.9409 24.8411 31.7973 24.7998 31.6441C24.7584 31.4909 24.7477 31.3311 24.7681 31.1737C24.7885 31.0163 24.8398 30.8645 24.9189 30.7269L33.2648 16.2293V16.2306ZM22.8333 34.3543C23.4375 33.146 27.0625 31.9377 25.8541 34.016C25.1985 35.137 24.5408 36.2567 23.8809 37.3752C23.721 37.653 23.4573 37.856 23.1477 37.9394C22.8382 38.0227 22.5082 37.9798 22.2303 37.8198C21.9525 37.6599 21.7495 37.3962 21.6662 37.0866C21.5828 36.7771 21.6258 36.4471 21.7857 36.1693L22.8333 34.3543ZM29.0357 17.4365C28.8758 17.1586 28.8328 16.8286 28.9162 16.5191C28.9995 16.2095 29.2025 15.9458 29.4803 15.7859C29.7582 15.626 30.0882 15.583 30.3977 15.6664C30.7073 15.7498 30.971 15.9527 31.1309 16.2306L33.237 19.8906C33.3187 20.0282 33.3723 20.1807 33.3946 20.3391C33.4169 20.4976 33.4075 20.6589 33.3669 20.8137C33.3264 20.9685 33.2554 21.1137 33.1583 21.2409C33.0612 21.3681 32.9397 21.4747 32.801 21.5546C32.6624 21.6344 32.5092 21.686 32.3505 21.7062C32.1917 21.7263 32.0305 21.7148 31.8763 21.6722C31.722 21.6296 31.5778 21.5567 31.4519 21.4579C31.326 21.3591 31.221 21.2362 31.143 21.0965L29.0357 17.4365ZM33.7083 25.896C32.6232 24.0835 33.7083 20.4585 34.5735 22.2662L42.6089 36.1668C42.7637 36.4442 42.8031 36.7714 42.7185 37.0777C42.6339 37.3839 42.4321 37.6445 42.1568 37.803C41.8815 37.9615 41.5549 38.0053 41.2476 37.9248C40.9403 37.8442 40.677 37.6459 40.5148 37.3728L33.7083 25.896Z" fill="white"/>
</svg>
