<svg width="11" height="23" viewBox="0 0 11 23" fill="none" xmlns="http://www.w3.org/2000/svg">
<path d="M6.83953 10.651V7.1523L9.03953 4.94314C9.83953 4.15345 9.98953 2.89393 9.42953 1.9143C9.21609 1.53397 8.90558 1.21701 8.52964 0.995747C8.1537 0.774485 7.72579 0.656833 7.28953 0.654785C7.07953 0.654785 6.83953 0.684774 6.64953 0.744751C5.56953 1.03464 4.83953 2.03426 4.83953 3.15383V6.39259L1.69953 9.56137C0.884443 10.3927 0.331484 11.4449 0.10927 12.5876C-0.112943 13.7302 0.0053716 14.9129 0.449533 15.9889C1.21953 17.8882 2.89953 19.1977 4.83953 19.5376V20.1473C4.83953 20.4072 4.60953 20.6471 4.33953 20.6471H2.83953V22.6464H4.33953C5.68953 22.6464 6.83953 21.5368 6.83953 20.1473V19.6475C8.86953 19.6475 10.9995 17.7282 10.9995 14.8993C10.9995 12.6002 9.07953 10.651 6.83953 10.651ZM6.83953 3.15383C6.83953 2.92392 6.94953 2.74398 7.15953 2.68401C7.37953 2.62403 7.60953 2.714 7.71953 2.91392C7.7761 3.00993 7.79895 3.12208 7.78446 3.23256C7.76996 3.34304 7.71896 3.4455 7.63953 3.52369L6.83953 4.38336V3.15383ZM4.83953 11.1508C3.86953 11.7905 3.13953 12.8901 2.87953 13.9097L4.83953 14.4295V17.4783C4.26623 17.3247 3.73611 17.0409 3.29037 16.6491C2.84464 16.2572 2.49531 15.7679 2.26953 15.2192C1.67953 13.7598 1.99953 12.1004 3.09953 10.9808L4.83953 9.15153V11.1508ZM6.83953 17.6483V12.5902C8.00953 12.5902 9.01953 13.6898 9.01953 14.8993C9.01953 16.6487 7.74953 17.6483 6.83953 17.6483Z" fill="#FBBB00"/>
</svg>
