<svg width="79" height="79" viewBox="0 0 79 79" fill="none" xmlns="http://www.w3.org/2000/svg">
<path d="M39.5 19.75C37.0586 19.75 34.6721 20.4739 32.6422 21.8303C30.6123 23.1866 29.0301 25.1145 28.0959 27.37C27.1616 29.6255 26.9172 32.1074 27.3934 34.5019C27.8697 36.8963 29.0454 39.0958 30.7717 40.8221C32.498 42.5484 34.6974 43.724 37.0919 44.2003C39.4863 44.6766 41.9682 44.4322 44.2238 43.4979C46.4793 42.5636 48.4071 40.9815 49.7635 38.9516C51.1198 36.9216 51.8438 34.5351 51.8438 32.0938C51.8438 28.82 50.5433 25.6803 48.2284 23.3654C45.9135 21.0505 42.7738 19.75 39.5 19.75Z" fill="white"/>
<path d="M39.5 4.9375C32.6642 4.9375 25.9819 6.96456 20.2981 10.7623C14.6143 14.5601 10.1844 19.958 7.56843 26.2735C4.95248 32.589 4.26802 39.5383 5.60162 46.2428C6.93523 52.9473 10.227 59.1057 15.0606 63.9394C19.8943 68.773 26.0527 72.0648 32.7572 73.3984C39.4617 74.732 46.411 74.0475 52.7265 71.4316C59.042 68.8156 64.4399 64.3857 68.2377 58.7019C72.0355 53.0181 74.0625 46.3358 74.0625 39.5C74.0521 30.3367 70.4073 21.5516 63.9278 15.0722C57.4484 8.59271 48.6634 4.94795 39.5 4.9375ZM59.2303 61.5361C59.1811 58.2979 57.8617 55.2086 55.5565 52.9339C53.2514 50.6592 50.1448 49.3811 46.9063 49.375H32.0938C28.8552 49.3811 25.7487 50.6592 23.4435 52.9339C21.1383 55.2086 19.819 58.2979 19.7698 61.5361C15.2928 57.5385 12.1357 52.2755 10.7165 46.4438C9.29718 40.6121 9.6827 34.4868 11.822 28.8791C13.9612 23.2714 17.7533 18.4457 22.6962 15.041C27.639 11.6364 33.4993 9.81334 39.5013 9.81334C45.5032 9.81334 51.3635 11.6364 56.3063 15.041C61.2492 18.4457 65.0413 23.2714 67.1805 28.8791C69.3198 34.4868 69.7053 40.6121 68.286 46.4438C66.8668 52.2755 63.7097 57.5385 59.2327 61.5361H59.2303Z" fill="white"/>
</svg>
