<svg id="SvgjsSvg1001" width="288" height="288" xmlns="http://www.w3.org/2000/svg" version="1.1" xmlns:xlink="http://www.w3.org/1999/xlink" xmlns:svgjs="http://svgjs.com/svgjs"><defs id="SvgjsDefs1002"></defs><g id="SvgjsG1008" transform="matrix(1,0,0,1,0,0)"><svg xmlns="http://www.w3.org/2000/svg" enable-background="new 0 0 330 330" viewBox="0 0 330 330" width="288" height="288"><path d="M135 90H15c-8.284 0-15 6.716-15 15s6.716 15 15 15h120c8.284 0 15-6.716 15-15S143.284 90 135 90zM135 150H15c-8.284 0-15 6.716-15 15 0 8.284 6.716 15 15 15h120c8.284 0 15-6.716 15-15C150 156.716 143.284 150 135 150zM135 210H15c-8.284 0-15 6.716-15 15 0 8.284 6.716 15 15 15h120c8.284 0 15-6.716 15-15C150 216.716 143.284 210 135 210zM328.858 129.26c-2.322-5.605-7.791-9.26-13.858-9.26H195c-6.067 0-11.536 3.655-13.858 9.26-2.321 5.605-1.038 12.057 3.252 16.347l60 60C247.322 208.536 251.161 210 255 210s7.678-1.464 10.606-4.394l60-60C329.897 141.317 331.18 134.865 328.858 129.26z" fill="white" class="color000 svgShape"></path></svg></g></svg>