<svg width="26" height="32" viewBox="0 0 26 32" fill="none" xmlns="http://www.w3.org/2000/svg">
<path d="M2.6 5.421V22.1C2.59975 23.7503 3.22721 25.3389 4.3551 26.5435C5.483 27.7482 7.02689 28.4787 8.6736 28.587L9.1 28.6H20.5764C20.3076 29.3603 19.8097 30.0186 19.1513 30.4842C18.4929 30.9498 17.7064 31.1999 16.9 31.2H7.8C5.73131 31.2 3.74735 30.3782 2.28457 28.9154C0.821784 27.4527 5.36215e-07 25.4687 5.36215e-07 23.4V9.1C-0.000422448 8.29315 0.249412 7.50603 0.715073 6.84712C1.18073 6.18821 1.8393 5.68995 2.6 5.421ZM22.1 0C23.1343 0 24.1263 0.410892 24.8577 1.14228C25.5891 1.87368 26 2.86566 26 3.9V22.1C26 23.1343 25.5891 24.1263 24.8577 24.8577C24.1263 25.5891 23.1343 26 22.1 26H9.1C8.06566 26 7.07368 25.5891 6.34228 24.8577C5.61089 24.1263 5.2 23.1343 5.2 22.1V3.9C5.2 2.86566 5.61089 1.87368 6.34228 1.14228C7.07368 0.410892 8.06566 0 9.1 0H22.1Z" fill="black"/>
</svg>
