<svg width="981" height="284" viewBox="0 0 981 284" fill="none" xmlns="http://www.w3.org/2000/svg">
<path d="M419.27 221.323L425.061 222.241L421.37 226.797L419.27 221.323Z" fill="#BD8411" fill-opacity="0.28"/>
<circle cx="241.514" cy="237.104" r="2.71271" transform="rotate(-18.2608 241.514 237.104)" fill="#BD8411" fill-opacity="0.28"/>
<circle cx="363.001" cy="250.34" r="2.71271" transform="rotate(-18.2608 363.001 250.34)" fill="#BD8411" fill-opacity="0.28"/>
<rect x="274.153" y="223.477" width="5.5" height="5.5" transform="rotate(-18.2608 274.153 223.477)" fill="#BD8411" fill-opacity="0.28"/>
<rect x="213.94" y="277.624" width="5.5" height="5.5" transform="rotate(-18.2608 213.94 277.624)" fill="#BD8411" fill-opacity="0.28"/>
<rect x="402.047" y="198.417" width="5.5" height="5.5" transform="rotate(-18.2608 402.047 198.417)" fill="#BD8411" fill-opacity="0.28"/>
<path d="M275.199 255.507L276.754 257.625L279.249 256.802L277.714 258.935L279.268 261.054L276.766 260.253L275.231 262.386L275.219 259.758L272.716 258.958L275.211 258.134L275.199 255.507Z" fill="#BD8411" fill-opacity="0.28"/>
<path d="M350.569 201.12L352.123 203.239L354.618 202.415L353.083 204.548L354.638 206.667L352.135 205.867L350.6 208L350.588 205.372L348.085 204.571L350.581 203.748L350.569 201.12Z" fill="#BD8411" fill-opacity="0.28"/>
<path d="M1.9736 112.617L7.76489 113.536L4.07378 118.092L1.9736 112.617Z" fill="#BD8411" fill-opacity="0.28"/>
<path d="M249.27 77.3226L255.061 78.2412L251.37 82.7973L249.27 77.3226Z" fill="#BD8411" fill-opacity="0.28"/>
<circle cx="71.5136" cy="93.1035" r="2.71271" transform="rotate(-18.2608 71.5136 93.1035)" fill="#BD8411" fill-opacity="0.28"/>
<circle cx="193.001" cy="106.34" r="2.71271" transform="rotate(-18.2608 193.001 106.34)" fill="#BD8411" fill-opacity="0.28"/>
<rect x="104.153" y="79.4773" width="5.5" height="5.5" transform="rotate(-18.2608 104.153 79.4773)" fill="#BD8411" fill-opacity="0.28"/>
<rect x="43.9396" y="133.624" width="5.5" height="5.5" transform="rotate(-18.2608 43.9396 133.624)" fill="#BD8411" fill-opacity="0.28"/>
<rect x="232.047" y="54.4167" width="5.5" height="5.5" transform="rotate(-18.2608 232.047 54.4167)" fill="#BD8411" fill-opacity="0.28"/>
<path d="M105.199 111.507L106.754 113.625L109.249 112.802L107.714 114.935L109.268 117.054L106.766 116.253L105.231 118.386L105.219 115.758L102.716 114.958L105.211 114.134L105.199 111.507Z" fill="#BD8411" fill-opacity="0.28"/>
<path d="M180.569 57.1198L182.123 59.2388L184.618 58.4153L183.083 60.5483L184.638 62.6673L182.135 61.8666L180.6 63.9996L180.588 61.3718L178.085 60.5711L180.581 59.7477L180.569 57.1198Z" fill="#BD8411" fill-opacity="0.28"/>
<path d="M157.932 91.5223L156.688 91.9328L157.094 93.1629L156.342 93.411L155.936 92.181L154.692 92.5915L154.46 91.8886L155.704 91.4781L155.298 90.2481L156.05 89.9999L156.456 91.2299L157.7 90.8194L157.932 91.5223Z" fill="#A5730E" fill-opacity="0.47"/>
<path d="M785.974 23.6173L791.765 24.5358L788.074 29.092L785.974 23.6173Z" fill="#BD8411" fill-opacity="0.28"/>
<circle cx="855.514" cy="4.10353" r="2.71271" transform="rotate(-18.2608 855.514 4.10353)" fill="#BD8411" fill-opacity="0.28"/>
<circle cx="977.001" cy="17.3403" r="2.71271" transform="rotate(-18.2608 977.001 17.3403)" fill="#BD8411" fill-opacity="0.28"/>
<rect x="827.94" y="44.624" width="5.5" height="5.5" transform="rotate(-18.2608 827.94 44.624)" fill="#BD8411" fill-opacity="0.28"/>
<path d="M889.199 22.5065L890.754 24.6255L893.249 23.8021L891.714 25.9351L893.268 28.054L890.766 27.2533L889.231 29.3863L889.219 26.7585L886.716 25.9578L889.211 25.1344L889.199 22.5065Z" fill="#BD8411" fill-opacity="0.28"/>
<path d="M941.932 2.52232L940.688 2.93282L941.094 4.16285L940.342 4.41101L939.936 3.18098L938.692 3.59148L938.46 2.8886L939.704 2.4781L939.298 1.24807L940.05 0.999917L940.456 2.22995L941.7 1.81945L941.932 2.52232Z" fill="#A5730E" fill-opacity="0.47"/>
<path d="M607.974 251.617L613.765 252.536L610.074 257.092L607.974 251.617Z" fill="#BD8411" fill-opacity="0.28"/>
<path d="M855.27 216.323L861.061 217.241L857.37 221.797L855.27 216.323Z" fill="#BD8411" fill-opacity="0.28"/>
<circle cx="677.514" cy="232.104" r="2.71271" transform="rotate(-18.2608 677.514 232.104)" fill="#BD8411" fill-opacity="0.28"/>
<rect x="710.153" y="218.477" width="5.5" height="5.5" transform="rotate(-18.2608 710.153 218.477)" fill="#BD8411" fill-opacity="0.28"/>
<rect x="649.94" y="272.624" width="5.5" height="5.5" transform="rotate(-18.2608 649.94 272.624)" fill="#BD8411" fill-opacity="0.28"/>
<rect x="838.047" y="193.417" width="5.5" height="5.5" transform="rotate(-18.2608 838.047 193.417)" fill="#BD8411" fill-opacity="0.28"/>
<path d="M786.569 196.12L788.123 198.239L790.618 197.415L789.083 199.548L790.638 201.667L788.135 200.867L786.6 203L786.588 200.372L784.085 199.571L786.581 198.748L786.569 196.12Z" fill="#BD8411" fill-opacity="0.28"/>
<path d="M763.932 230.522L762.688 230.933L763.094 232.163L762.342 232.411L761.936 231.181L760.692 231.591L760.46 230.889L761.704 230.478L761.298 229.248L762.05 229L762.456 230.23L763.7 229.819L763.932 230.522Z" fill="#A5730E" fill-opacity="0.47"/>
<path d="M576.195 281.994L574.951 282.405L575.357 283.635L574.604 283.883L574.199 282.653L572.955 283.063L572.723 282.36L573.967 281.95L573.561 280.72L574.313 280.472L574.719 281.702L575.963 281.291L576.195 281.994Z" fill="#A5730E" fill-opacity="0.47"/>
</svg>
