<svg width="24" height="26" viewBox="0 0 24 26" fill="none" xmlns="http://www.w3.org/2000/svg">
<path d="M7.22026 2.89164C6.83727 2.89164 6.46997 3.04378 6.19916 3.31459C5.92835 3.58541 5.77621 3.95271 5.77621 4.33569C5.77621 4.71868 5.92835 5.08598 6.19916 5.35679C6.46997 5.6276 6.83727 5.77974 7.22026 5.77974C7.60324 5.77974 7.97054 5.6276 8.24135 5.35679C8.51217 5.08598 8.66431 4.71868 8.66431 4.33569C8.66431 3.95271 8.51217 3.58541 8.24135 3.31459C7.97054 3.04378 7.60324 2.89164 7.22026 2.89164ZM3.13359 2.89164C3.43194 2.0461 3.9852 1.31392 4.71714 0.796019C5.44907 0.278118 6.32363 0 7.22026 0C8.11689 0 8.99144 0.278118 9.72338 0.796019C10.4553 1.31392 11.0086 2.0461 11.3069 2.89164H21.6608C22.0438 2.89164 22.4111 3.04378 22.6819 3.31459C22.9527 3.58541 23.1048 3.95271 23.1048 4.33569C23.1048 4.71868 22.9527 5.08598 22.6819 5.35679C22.4111 5.6276 22.0438 5.77974 21.6608 5.77974H11.3069C11.0086 6.62528 10.4553 7.35747 9.72338 7.87537C8.99144 8.39327 8.11689 8.67138 7.22026 8.67138C6.32363 8.67138 5.44907 8.39327 4.71714 7.87537C3.9852 7.35747 3.43194 6.62528 3.13359 5.77974H1.44405C1.06107 5.77974 0.693765 5.6276 0.422953 5.35679C0.152141 5.08598 0 4.71868 0 4.33569C0 3.95271 0.152141 3.58541 0.422953 3.31459C0.693765 3.04378 1.06107 2.89164 1.44405 2.89164H3.13359ZM15.8846 11.5559C15.5016 11.5559 15.1343 11.7081 14.8635 11.9789C14.5927 12.2497 14.4405 12.617 14.4405 13C14.4405 13.383 14.5927 13.7503 14.8635 14.0211C15.1343 14.2919 15.5016 14.4441 15.8846 14.4441C16.2675 14.4441 16.6348 14.2919 16.9057 14.0211C17.1765 13.7503 17.3286 13.383 17.3286 13C17.3286 12.617 17.1765 12.2497 16.9057 11.9789C16.6348 11.7081 16.2675 11.5559 15.8846 11.5559ZM11.7979 11.5559C12.0962 10.7104 12.6495 9.97823 13.3814 9.46033C14.1134 8.94242 14.9879 8.66431 15.8846 8.66431C16.7812 8.66431 17.6558 8.94242 18.3877 9.46033C19.1196 9.97823 19.6729 10.7104 19.9712 11.5559H21.6608C22.0438 11.5559 22.4111 11.7081 22.6819 11.9789C22.9527 12.2497 23.1048 12.617 23.1048 13C23.1048 13.383 22.9527 13.7503 22.6819 14.0211C22.4111 14.2919 22.0438 14.4441 21.6608 14.4441H19.9712C19.6729 15.2896 19.1196 16.0218 18.3877 16.5397C17.6558 17.0576 16.7812 17.3357 15.8846 17.3357C14.9879 17.3357 14.1134 17.0576 13.3814 16.5397C12.6495 16.0218 12.0962 15.2896 11.7979 14.4441H1.44405C1.06107 14.4441 0.693765 14.2919 0.422953 14.0211C0.152141 13.7503 0 13.383 0 13C0 12.617 0.152141 12.2497 0.422953 11.9789C0.693765 11.7081 1.06107 11.5559 1.44405 11.5559H11.7979ZM7.22026 20.2203C6.83727 20.2203 6.46997 20.3724 6.19916 20.6432C5.92835 20.914 5.77621 21.2813 5.77621 21.6643C5.77621 22.0473 5.92835 22.4146 6.19916 22.6854C6.46997 22.9562 6.83727 23.1084 7.22026 23.1084C7.60324 23.1084 7.97054 22.9562 8.24135 22.6854C8.51217 22.4146 8.66431 22.0473 8.66431 21.6643C8.66431 21.2813 8.51217 20.914 8.24135 20.6432C7.97054 20.3724 7.60324 20.2203 7.22026 20.2203ZM3.13359 20.2203C3.43194 19.3747 3.9852 18.6425 4.71714 18.1246C5.44907 17.6067 6.32363 17.3286 7.22026 17.3286C8.11689 17.3286 8.99144 17.6067 9.72338 18.1246C10.4553 18.6425 11.0086 19.3747 11.3069 20.2203H21.6608C22.0438 20.2203 22.4111 20.3724 22.6819 20.6432C22.9527 20.914 23.1048 21.2813 23.1048 21.6643C23.1048 22.0473 22.9527 22.4146 22.6819 22.6854C22.4111 22.9562 22.0438 23.1084 21.6608 23.1084H11.3069C11.0086 23.9539 10.4553 24.6861 9.72338 25.204C8.99144 25.7219 8.11689 26 7.22026 26C6.32363 26 5.44907 25.7219 4.71714 25.204C3.9852 24.6861 3.43194 23.9539 3.13359 23.1084H1.44405C1.06107 23.1084 0.693765 22.9562 0.422953 22.6854C0.152141 22.4146 0 22.0473 0 21.6643C0 21.2813 0.152141 20.914 0.422953 20.6432C0.693765 20.3724 1.06107 20.2203 1.44405 20.2203H3.13359Z" fill="#A5730E"/>
</svg>
