<svg width="33" height="33" fill="none" xmlns="http://www.w3.org/2000/svg">
<path d="M19.0122 33H13.0062C12.6298 33.0001 12.2648 32.8715 11.9716 32.6356C11.6784 32.3997 11.4746 32.0707 11.3941 31.7031L10.7226 28.5945C9.82671 28.202 8.97725 27.7111 8.18981 27.131L5.15876 28.0962C4.79999 28.2106 4.41288 28.1989 4.06171 28.0629C3.71054 27.9269 3.41644 27.6749 3.22826 27.3488L0.21866 22.1496C0.0324496 21.8231 -0.0374491 21.4431 0.0203996 21.0717C0.0782484 20.7004 0.260419 20.3596 0.53711 20.1053L2.88836 17.9603C2.78143 16.9886 2.78143 16.0081 2.88836 15.0364L0.53711 12.8964C0.260028 12.6419 0.0776088 12.3009 0.0197506 11.9291C-0.0381077 11.5574 0.0320271 11.177 0.21866 10.8504L3.22166 5.64795C3.40984 5.32177 3.70394 5.06978 4.05511 4.93381C4.40628 4.79784 4.79339 4.78609 5.15216 4.9005L8.18321 5.86575C8.58581 5.56875 9.00491 5.29155 9.43721 5.04075C9.85466 4.80645 10.2837 4.5936 10.7226 4.40385L11.3958 1.29855C11.4759 0.930926 11.6793 0.601735 11.9722 0.365555C12.2651 0.129376 12.6299 0.000395944 13.0062 0H19.0122C19.3884 0.000395944 19.7532 0.129376 20.0461 0.365555C20.339 0.601735 20.5424 0.930926 20.6226 1.29855L21.3024 4.4055C21.7644 4.6101 22.2165 4.83945 22.6537 5.0952C23.0613 5.33115 23.4556 5.5902 23.8351 5.86905L26.8678 4.9038C27.2264 4.78981 27.6131 4.80178 27.9639 4.93773C28.3147 5.07367 28.6085 5.32542 28.7967 5.65125L31.7997 10.8537C32.1825 11.5252 32.0505 12.375 31.4812 12.8981L29.13 15.043C29.2369 16.0147 29.2369 16.9952 29.13 17.9669L31.4812 20.1119C32.0505 20.6365 32.1825 21.4846 31.7997 22.1562L28.7967 27.3586C28.6085 27.6848 28.3144 27.9368 27.9632 28.0728C27.612 28.2088 27.2249 28.2205 26.8662 28.1061L23.8351 27.1408C23.0483 27.7206 22.1994 28.2109 21.304 28.6027L20.6226 31.7031C20.5421 32.0704 20.3386 32.3992 20.0457 32.6351C19.7528 32.8709 19.3882 32.9997 19.0122 33ZM16.0026 9.9C14.2521 9.9 12.5734 10.5954 11.3357 11.8331C10.0979 13.0708 9.40256 14.7496 9.40256 16.5C9.40256 18.2504 10.0979 19.9292 11.3357 21.1669C12.5734 22.4046 14.2521 23.1 16.0026 23.1C17.753 23.1 19.4317 22.4046 20.6695 21.1669C21.9072 19.9292 22.6026 18.2504 22.6026 16.5C22.6026 14.7496 21.9072 13.0708 20.6695 11.8331C19.4317 10.5954 17.753 9.9 16.0026 9.9Z" fill="white" fill-opacity="0.75"/>
</svg>
