<svg width="26" height="26" viewBox="0 0 26 26" fill="none" xmlns="http://www.w3.org/2000/svg">
<path class="mobile-nav-svg" fill-rule="evenodd" clip-rule="evenodd" d="M2.26849 12.5666C2.26849 6.78297 6.95702 2.09443 12.7406 2.09443C18.5242 2.09443 23.2127 6.78297 23.2127 12.5666C23.2127 15.723 21.8163 18.5532 19.6075 20.4732C19.1282 19.1902 18.2971 18.0624 17.2031 17.223C15.9229 16.2407 14.3543 15.7082 12.7406 15.7082C11.1269 15.7082 9.55833 16.2407 8.2781 17.223C7.18416 18.0624 6.35302 19.1902 5.87372 20.4732C3.66494 18.5532 2.26849 15.723 2.26849 12.5666ZM17.7983 21.6835C17.8026 21.6995 17.8072 21.7153 17.8122 21.7309C16.3096 22.5642 14.5805 23.0387 12.7406 23.0387C10.9007 23.0387 9.17164 22.5642 7.66908 21.7309C7.67405 21.7153 7.67869 21.6995 7.68297 21.6835C7.9813 20.5701 8.63866 19.5863 9.55311 18.8846C10.4676 18.183 11.588 17.8026 12.7406 17.8026C13.8933 17.8026 15.0137 18.183 15.9281 18.8846C16.8426 19.5863 17.4999 20.5701 17.7983 21.6835ZM10.6462 9.42493C10.6462 8.26821 11.5839 7.3305 12.7406 7.3305C13.8973 7.3305 14.835 8.26821 14.835 9.42493C14.835 10.5816 13.8973 11.5194 12.7406 11.5194C11.5839 11.5194 10.6462 10.5816 10.6462 9.42493ZM12.7406 5.23608C10.4272 5.23608 8.55177 7.11149 8.55177 9.42493C8.55177 11.7384 10.4272 13.6138 12.7406 13.6138C15.0541 13.6138 16.9295 11.7384 16.9295 9.42493C16.9295 7.11149 15.0541 5.23608 12.7406 5.23608Z" fill="white"/>
<rect class="mobile-nav-svg" x="2.7921" y="2.61804" width="19.897" height="19.897" rx="9.94852" stroke="white" stroke-width="1.04721"/>
</svg>
