<svg width="21" height="21" viewBox="0 0 21 21" fill="none" xmlns="http://www.w3.org/2000/svg">
<path d="M14.4378 3.28142C14.4378 2.51155 14.7084 1.76616 15.2023 1.17566C15.6963 0.585158 16.3822 0.187151 17.14 0.051273C17.8978 -0.0846054 18.6792 0.0502968 19.3476 0.432377C20.0159 0.814458 20.5287 1.41939 20.7961 2.14133C21.0635 2.86326 21.0685 3.65624 20.8103 4.38152C20.5521 5.1068 20.0471 5.71819 19.3836 6.10873C18.7202 6.49927 17.9405 6.64409 17.181 6.51785C16.4216 6.39161 15.7307 6.00235 15.2293 5.41817L6.41191 9.51317C6.61461 10.1556 6.61461 10.8448 6.41191 11.4872L15.2293 15.5822C15.7593 14.9657 16.4993 14.568 17.3059 14.4661C18.1125 14.3642 18.9282 14.5653 19.5949 15.0305C20.2616 15.4957 20.7319 16.1919 20.9146 16.9841C21.0973 17.7763 20.9794 18.6081 20.5837 19.3183C20.1881 20.0285 19.5429 20.5666 18.7731 20.8282C18.0034 21.0898 17.1639 21.0563 16.4175 20.7343C15.671 20.4122 15.0706 19.8245 14.7328 19.0851C14.3949 18.3456 14.3436 17.5071 14.5888 16.7319L5.77141 12.6369C5.33492 13.1456 4.75311 13.5084 4.10425 13.6765C3.45538 13.8447 2.7706 13.81 2.142 13.5773C1.51341 13.3446 0.971173 12.9249 0.588226 12.3748C0.20528 11.8247 0 11.1705 0 10.5002C0 9.82988 0.20528 9.17567 0.588226 8.62554C0.971173 8.07541 1.51341 7.65576 2.142 7.42304C2.7706 7.19032 3.45538 7.15569 4.10425 7.32381C4.75311 7.49193 5.33492 7.85473 5.77141 8.36342L14.5888 4.26842C14.4884 3.94904 14.4375 3.61619 14.4378 3.28142Z" fill="white"/>
</svg>
