<svg width="30" height="30" viewBox="0 0 30 30" fill="none" xmlns="http://www.w3.org/2000/svg">
<g clip-path="url(#clip0)">
<path d="M25.792 9.7823C25.8062 15.0855 25.8204 12.1564 25.8332 17.4596C23.3996 15.7084 18.8996 16.154 17.7873 19.1582C17.0866 21.0501 17.5752 23.2281 19.0673 24.5654C20.6555 25.9901 23.1638 25.9636 25.0712 25.3371C26.8623 24.7481 28.3145 23.1759 28.5879 21.3061C28.608 21.1774 28.6135 21.045 28.6241 20.9122C28.6149 13.8976 28.6218 6.5564 28.6236 0.262589L10.5161 5.03733C10.4626 5.07165 10.4189 5.11936 10.3894 5.17575C10.3599 5.23213 10.3457 5.29524 10.3481 5.35882L10.3911 21.2667C7.95796 19.515 3.45754 19.9601 2.34331 22.9639C1.64217 24.8571 2.13219 27.0338 3.62516 28.3725C5.21292 29.7972 7.72119 29.7697 9.62907 29.1437C11.4206 28.5547 12.8705 26.9821 13.1462 25.1127C13.1659 24.984 13.1696 24.8512 13.1801 24.7197V22.4299C13.176 19.2278 13.1737 15.9231 13.1801 13.2202L25.792 9.7823Z" fill="#F5F5F5"/>
<path d="M6.06289 22.995C6.29004 22.7867 6.236 22.3617 5.94291 22.0452C5.65118 21.7292 5.2294 21.6404 5.00225 21.8487L4.0419 22.7331C3.81475 22.941 3.87199 23.3669 4.16371 23.6834C4.45452 23.9994 4.87448 24.0873 5.10163 23.878L6.06289 22.995Z" fill="#F5F5F5"/>
<path d="M21.6475 18.9265C21.8746 18.7172 21.8224 18.2927 21.5293 17.9771C21.2358 17.6611 20.8158 17.5718 20.5886 17.7793L19.6283 18.665C19.4011 18.8724 19.4566 19.2974 19.7497 19.6139C20.04 19.9313 20.4618 20.0183 20.6889 19.8099L21.6475 18.9265Z" fill="#F5F5F5"/>
</g>
<defs>
<clipPath id="clip0">
<rect width="29.3097" height="29.3097" fill="white" transform="translate(0.539795 0.256622)"/>
</clipPath>
</defs>
</svg>
