<svg width="1432" height="1730" viewBox="0 0 1432 1730" fill="none" xmlns="http://www.w3.org/2000/svg">

<path d="M915.985 382.467L1095.93 77.5582L1270.01 385.846L915.985 382.467Z" stroke="#979797" stroke-opacity="0.42" stroke-width="0.619684"/>
<path d="M991.587 345.906L1171.53 40.9969L1345.62 349.284L991.587 345.906Z" stroke="#979797" stroke-opacity="0.42" stroke-width="0.619684"/>
<path d="M1074 307.485L1253.95 2.57627L1428.03 310.864L1074 307.485Z" stroke="#979797" stroke-opacity="0.42" stroke-width="0.619684"/>
<path d="M874.985 1138.47L1054.93 833.558L1229.01 1141.85L874.985 1138.47Z" stroke="#979797" stroke-opacity="0.42" stroke-width="0.619684"/>
<path d="M950.587 1101.91L1130.53 796.997L1304.62 1105.28L950.587 1101.91Z" stroke="#979797" stroke-opacity="0.42" stroke-width="0.619684"/>
<path d="M1033 1063.49L1212.95 758.576L1387.03 1066.86L1033 1063.49Z" stroke="#979797" stroke-opacity="0.42" stroke-width="0.619684"/>
<path d="M-204.195 1253.87L508.275 908.379L451.246 1698.14L-204.195 1253.87Z" stroke="#979797" stroke-opacity="0.42" stroke-width="1.38592"/>
<path d="M-3.10509 1284.25L709.365 938.754L652.336 1728.52L-3.10509 1284.25Z" stroke="#979797" stroke-opacity="0.42" stroke-width="1.38592"/>
<path d="M266.985 475.467L446.926 170.558L621.014 478.846L266.985 475.467Z" stroke="#979797" stroke-opacity="0.42" stroke-width="0.619684"/>
<path d="M342.587 438.906L522.527 133.997L696.616 442.284L342.587 438.906Z" stroke="#979797" stroke-opacity="0.42" stroke-width="0.619684"/>
<path d="M425.005 400.485L604.945 95.5763L779.034 403.864L425.005 400.485Z" stroke="#979797" stroke-opacity="0.42" stroke-width="0.619684"/>
</svg>
