<svg width="16" height="20" viewBox="0 0 16 20" fill="none" xmlns="http://www.w3.org/2000/svg">
<g clip-path="url(#clip0)">
<path d="M12.9883 10.2968C13.0149 13.1202 15.4982 14.0598 15.5257 14.0717C15.5047 14.138 15.1289 15.4107 14.2174 16.7253C13.4294 17.8619 12.6116 18.9943 11.3233 19.0177C10.0574 19.0408 9.65029 18.2769 8.203 18.2769C6.75615 18.2769 6.30389 18.9943 5.10557 19.0408C3.86201 19.0872 2.91506 17.8117 2.12052 16.6793C0.496979 14.363 -0.743742 10.1339 0.922233 7.27918C1.74985 5.86152 3.22888 4.96379 4.83422 4.94077C6.05536 4.91779 7.20797 5.75151 7.95447 5.75151C8.7005 5.75151 10.1012 4.74889 11.5736 4.89613C12.1901 4.92145 13.9204 5.14186 15.0315 6.74681C14.942 6.80158 12.9668 7.93627 12.9883 10.2968V10.2968ZM10.6092 3.36367C11.2694 2.57502 11.7138 1.47714 11.5925 0.384766C10.6409 0.42251 9.49014 1.01058 8.80755 1.79879C8.19581 2.4968 7.66007 3.614 7.80462 4.68475C8.86534 4.76574 9.94895 4.15282 10.6092 3.36367" fill="black"/>
</g>
<defs>
<clipPath id="clip0">
<rect width="15.3941" height="18.6928" fill="white" transform="translate(0.131653 0.384766)"/>
</clipPath>
</defs>
</svg>
