<svg width="27" height="22" viewBox="0 0 27 22" fill="none" xmlns="http://www.w3.org/2000/svg">
<path d="M19.8696 0.116699C20.6184 0.116607 21.3393 0.400671 21.8866 0.911482C22.434 1.42229 22.7669 2.12176 22.8182 2.86852L22.8247 3.0707V17.8407C22.8244 18.0047 22.8856 18.163 22.9961 18.2842C23.1067 18.4054 23.2586 18.4808 23.4221 18.4957C23.5855 18.5105 23.7486 18.4636 23.8792 18.3643C24.0097 18.2649 24.0984 18.1203 24.1276 17.9589L24.1381 17.8407V4.07375C24.8236 4.15036 25.4607 4.46428 25.939 4.96111C26.4173 5.45793 26.7067 6.10637 26.757 6.79405L26.7649 7.00937V16.856C26.765 17.9459 26.3478 18.9945 25.599 19.7867C24.8502 20.5789 23.8266 21.0547 22.738 21.1164L22.4964 21.1229H4.76559C3.6753 21.123 2.6263 20.706 1.8338 19.9575C1.0413 19.209 0.565365 18.1857 0.503637 17.0976L0.49707 16.856V3.0707C0.496978 2.32219 0.781151 1.60155 1.29216 1.05443C1.80316 0.507303 2.5029 0.174495 3.24994 0.123264L3.4522 0.116699H19.8696ZM10.0165 9.30692H5.41966C5.15841 9.30692 4.90786 9.41066 4.72313 9.59533C4.5384 9.77999 4.43462 10.0304 4.43462 10.2916V14.8867C4.43462 15.4302 4.87592 15.8714 5.41966 15.8714H10.0165C10.2778 15.8714 10.5283 15.7676 10.7131 15.583C10.8978 15.3983 11.0016 15.1479 11.0016 14.8867V10.2916C11.0016 10.0304 10.8978 9.77999 10.7131 9.59533C10.5283 9.41066 10.2778 9.30692 10.0165 9.30692ZM17.9021 13.902H14.6213L14.4873 13.9112C14.2401 13.9452 14.015 14.0718 13.8575 14.2653C13.7 14.4588 13.6218 14.7049 13.6388 14.9538C13.6558 15.2027 13.7667 15.4359 13.9491 15.6062C14.1315 15.7765 14.3717 15.8713 14.6213 15.8714H17.9021L18.0361 15.8622C18.2833 15.8282 18.5085 15.7016 18.666 15.5081C18.8235 15.3146 18.9016 15.0685 18.8846 14.8196C18.8676 14.5707 18.7567 14.3375 18.5743 14.1672C18.3919 13.9969 18.1517 13.9021 17.9021 13.902ZM9.03149 11.2763V13.902H6.4047V11.2763H9.03149ZM17.8995 9.30692L14.6187 9.31349L14.4847 9.32136C14.235 9.35295 14.0069 9.47884 13.8472 9.67321C13.6875 9.86758 13.6082 10.1157 13.6257 10.3666C13.6432 10.6176 13.7561 10.8523 13.9412 11.0227C14.1263 11.193 14.3697 11.2861 14.6213 11.2828L17.9034 11.2763L18.0361 11.2671C18.2835 11.233 18.5087 11.1064 18.6662 10.9127C18.8237 10.7191 18.9017 10.4728 18.8845 10.2238C18.8674 9.97482 18.7562 9.74163 18.5736 9.57142C18.391 9.4012 18.1505 9.30667 17.9008 9.30692H17.8995ZM17.9008 4.71706H5.41966L5.28569 4.72625C5.03845 4.76026 4.81333 4.88681 4.65583 5.08034C4.49834 5.27387 4.4202 5.51994 4.43721 5.76884C4.45422 6.01774 4.56511 6.25091 4.74748 6.42123C4.92984 6.59155 5.17008 6.68632 5.41966 6.6864H17.9021L18.0361 6.67852C18.2855 6.6469 18.5133 6.52119 18.673 6.32711C18.8326 6.13304 18.912 5.88529 18.8949 5.63461C18.8778 5.38392 18.7654 5.14926 18.5809 4.97868C18.3963 4.8081 18.1535 4.71451 17.9021 4.71706H17.9008Z" fill="white"/>
</svg>
