<svg width="11" height="11" viewBox="0 0 11 11" fill="none" xmlns="http://www.w3.org/2000/svg">
<path d="M6.80577 0.920421C6.64363 0.754492 6.44996 0.622645 6.23614 0.532628C6.02232 0.442611 5.79266 0.39624 5.56067 0.39624C5.32867 0.39624 5.09902 0.442611 4.8852 0.532628C4.67138 0.622645 4.47771 0.754492 4.31557 0.920421L3.94089 1.30473L3.40478 1.29811C3.17272 1.29536 2.94245 1.33904 2.72752 1.42659C2.51258 1.51413 2.31732 1.64376 2.15321 1.80787C1.98911 1.97197 1.85947 2.16724 1.77193 2.38217C1.68439 2.59711 1.64071 2.82738 1.64345 3.05944L1.64948 3.59555L1.26637 3.97022C1.10044 4.13236 0.968592 4.32604 0.878575 4.53985C0.788558 4.75367 0.742188 4.98333 0.742188 5.21532C0.742188 5.44732 0.788558 5.67698 0.878575 5.8908C0.968592 6.10461 1.10044 6.29829 1.26637 6.46043L1.65008 6.8351L1.64345 7.37121C1.64071 7.60327 1.68439 7.83354 1.77193 8.04848C1.85947 8.26341 1.98911 8.45868 2.15321 8.62278C2.31732 8.78689 2.51258 8.91652 2.72752 9.00406C2.94245 9.09161 3.17272 9.13529 3.40478 9.13254L3.94089 9.12652L4.31557 9.50963C4.47771 9.67556 4.67138 9.8074 4.8852 9.89742C5.09902 9.98744 5.32867 10.0338 5.56067 10.0338C5.79266 10.0338 6.02232 9.98744 6.23614 9.89742C6.44996 9.8074 6.64363 9.67556 6.80577 9.50963L7.18044 9.12592L7.71655 9.13254C7.94862 9.13529 8.17889 9.09161 8.39382 9.00406C8.60876 8.91652 8.80402 8.78689 8.96812 8.62278C9.13223 8.45868 9.26187 8.26341 9.34941 8.04848C9.43695 7.83354 9.48063 7.60327 9.47789 7.37121L9.47186 6.8351L9.85497 6.46043C10.0209 6.29829 10.1527 6.10461 10.2428 5.8908C10.3328 5.67698 10.3792 5.44732 10.3792 5.21532C10.3792 4.98333 10.3328 4.75367 10.2428 4.53985C10.1527 4.32604 10.0209 4.13236 9.85497 3.97022L9.47126 3.59555L9.47789 3.05944C9.48063 2.82738 9.43695 2.59711 9.34941 2.38217C9.26187 2.16724 9.13223 1.97197 8.96812 1.80787C8.80402 1.64376 8.60876 1.51413 8.39382 1.42659C8.17889 1.33904 7.94862 1.29536 7.71655 1.29811L7.18044 1.30413L6.80577 0.921023V0.920421ZM6.97865 4.52501L5.17154 6.33212C5.14356 6.36017 5.11032 6.38242 5.07373 6.39761C5.03714 6.41279 4.99791 6.4206 4.9583 6.4206C4.91868 6.4206 4.87945 6.41279 4.84286 6.39761C4.80627 6.38242 4.77304 6.36017 4.74506 6.33212L3.8415 5.42856C3.8135 5.40056 3.79129 5.36732 3.77613 5.33073C3.76098 5.29414 3.75318 5.25493 3.75318 5.21532C3.75318 5.17572 3.76098 5.13651 3.77613 5.09992C3.79129 5.06333 3.8135 5.03009 3.8415 5.00209C3.86951 4.97408 3.90275 4.95187 3.93934 4.93671C3.97593 4.92156 4.01514 4.91376 4.05474 4.91376C4.09434 4.91376 4.13356 4.92156 4.17015 4.93671C4.20673 4.95187 4.23998 4.97408 4.26798 5.00209L4.9583 5.69301L6.55217 4.09853C6.60873 4.04197 6.68543 4.0102 6.76541 4.0102C6.84539 4.0102 6.9221 4.04197 6.97865 4.09853C7.0352 4.15508 7.06698 4.23179 7.06698 4.31177C7.06698 4.39175 7.0352 4.46845 6.97865 4.52501Z" fill="white"/>
</svg>
