<svg width="17" height="18" viewBox="0 0 17 18" fill="none" xmlns="http://www.w3.org/2000/svg">
<path d="M0 12.8407C0 12.5188 0.127933 12.2101 0.355656 11.9824C0.583379 11.7548 0.892237 11.6269 1.21429 11.6269H3.64286C3.96491 11.6269 4.27376 11.7548 4.50149 11.9824C4.72921 12.2101 4.85714 12.5188 4.85714 12.8407V16.4822C4.85714 16.8041 4.72921 17.1128 4.50149 17.3405C4.27376 17.5681 3.96491 17.696 3.64286 17.696H1.21429C0.892237 17.696 0.583379 17.5681 0.355656 17.3405C0.127933 17.1128 0 16.8041 0 16.4822V12.8407ZM6.07143 7.9855C6.07143 7.66358 6.19936 7.35484 6.42708 7.12721C6.65481 6.89957 6.96367 6.77169 7.28571 6.77169H9.71429C10.0363 6.77169 10.3452 6.89957 10.5729 7.12721C10.8006 7.35484 10.9286 7.66358 10.9286 7.9855V16.4822C10.9286 16.8041 10.8006 17.1128 10.5729 17.3405C10.3452 17.5681 10.0363 17.696 9.71429 17.696H7.28571C6.96367 17.696 6.65481 17.5681 6.42708 17.3405C6.19936 17.1128 6.07143 16.8041 6.07143 16.4822V7.9855ZM12.1429 1.91645C12.1429 1.59452 12.2708 1.28579 12.4985 1.05815C12.7262 0.83052 13.0351 0.702637 13.3571 0.702637H15.7857C16.1078 0.702637 16.4166 0.83052 16.6443 1.05815C16.8721 1.28579 17 1.59452 17 1.91645V16.4822C17 16.8041 16.8721 17.1128 16.6443 17.3405C16.4166 17.5681 16.1078 17.696 15.7857 17.696H13.3571C13.0351 17.696 12.7262 17.5681 12.4985 17.3405C12.2708 17.1128 12.1429 16.8041 12.1429 16.4822V1.91645Z" fill="#F14336"/>
</svg>
