<svg width="18" height="22" viewBox="0 0 18 22" fill="none" xmlns="http://www.w3.org/2000/svg">
<path d="M14.6645 8.36895H12.7089V2.22165C12.7089 1.54544 12.1554 0.992188 11.4789 0.992188H6.55921C5.88275 0.992188 5.32928 1.54544 5.32928 2.22165V8.36895H3.37368C2.27904 8.36895 1.72557 9.69676 2.50043 10.4713L8.14582 16.1145C8.62549 16.594 9.40035 16.594 9.88003 16.1145L15.5254 10.4713C16.3003 9.69676 15.7591 8.36895 14.6645 8.36895ZM0.409546 20.6635C0.409546 21.3397 0.963016 21.893 1.63948 21.893H16.3987C17.0751 21.893 17.6286 21.3397 17.6286 20.6635C17.6286 19.9873 17.0751 19.4341 16.3987 19.4341H1.63948C0.963016 19.4341 0.409546 19.9873 0.409546 20.6635Z" fill="white"/>
</svg>
