<svg width="30" height="33" viewBox="0 0 30 33" fill="none" xmlns="http://www.w3.org/2000/svg">
<path d="M9.16417 3.67016C8.67807 3.67016 8.21189 3.86326 7.86816 4.20698C7.52444 4.55071 7.33134 5.0169 7.33134 5.50299C7.33134 5.98909 7.52444 6.45528 7.86816 6.799C8.21189 7.14273 8.67807 7.33583 9.16417 7.33583C9.65027 7.33583 10.1165 7.14273 10.4602 6.799C10.8039 6.45528 10.997 5.98909 10.997 5.50299C10.997 5.0169 10.8039 4.55071 10.4602 4.20698C10.1165 3.86326 9.65027 3.67016 9.16417 3.67016ZM3.97725 3.67016C4.35592 2.59697 5.05814 1.66767 5.98714 1.01033C6.91613 0.352996 8.02614 0 9.16417 0C10.3022 0 11.4122 0.352996 12.3412 1.01033C13.2702 1.66767 13.9724 2.59697 14.3511 3.67016H27.4925C27.9786 3.67016 28.4448 3.86326 28.7885 4.20698C29.1322 4.55071 29.3253 5.0169 29.3253 5.50299C29.3253 5.98909 29.1322 6.45528 28.7885 6.799C28.4448 7.14273 27.9786 7.33583 27.4925 7.33583H14.3511C13.9724 8.40901 13.2702 9.33832 12.3412 9.99566C11.4122 10.653 10.3022 11.006 9.16417 11.006C8.02614 11.006 6.91613 10.653 5.98714 9.99566C5.05814 9.33832 4.35592 8.40901 3.97725 7.33583H1.83283C1.34674 7.33583 0.880548 7.14273 0.536825 6.799C0.193102 6.45528 0 5.98909 0 5.50299C0 5.0169 0.193102 4.55071 0.536825 4.20698C0.880548 3.86326 1.34674 3.67016 1.83283 3.67016H3.97725ZM20.1612 14.6672C19.6751 14.6672 19.2089 14.8603 18.8652 15.204C18.5214 15.5477 18.3283 16.0139 18.3283 16.5C18.3283 16.9861 18.5214 17.4523 18.8652 17.796C19.2089 18.1397 19.6751 18.3328 20.1612 18.3328C20.6473 18.3328 21.1135 18.1397 21.4572 17.796C21.8009 17.4523 21.994 16.9861 21.994 16.5C21.994 16.0139 21.8009 15.5477 21.4572 15.204C21.1135 14.8603 20.6473 14.6672 20.1612 14.6672ZM14.9743 14.6672C15.3529 13.594 16.0551 12.6647 16.9841 12.0073C17.9131 11.35 19.0231 10.997 20.1612 10.997C21.2992 10.997 22.4092 11.35 23.3382 12.0073C24.2672 12.6647 24.9694 13.594 25.3481 14.6672H27.4925C27.9786 14.6672 28.4448 14.8603 28.7885 15.204C29.1322 15.5477 29.3253 16.0139 29.3253 16.5C29.3253 16.9861 29.1322 17.4523 28.7885 17.796C28.4448 18.1397 27.9786 18.3328 27.4925 18.3328H25.3481C24.9694 19.406 24.2672 20.3353 23.3382 20.9927C22.4092 21.65 21.2992 22.003 20.1612 22.003C19.0231 22.003 17.9131 21.65 16.9841 20.9927C16.0551 20.3353 15.3529 19.406 14.9743 18.3328H1.83283C1.34674 18.3328 0.880548 18.1397 0.536825 17.796C0.193102 17.4523 0 16.9861 0 16.5C0 16.0139 0.193102 15.5477 0.536825 15.204C0.880548 14.8603 1.34674 14.6672 1.83283 14.6672H14.9743ZM9.16417 25.6642C8.67807 25.6642 8.21189 25.8573 7.86816 26.201C7.52444 26.5447 7.33134 27.0109 7.33134 27.497C7.33134 27.9831 7.52444 28.4493 7.86816 28.793C8.21189 29.1367 8.67807 29.3298 9.16417 29.3298C9.65027 29.3298 10.1165 29.1367 10.4602 28.793C10.8039 28.4493 10.997 27.9831 10.997 27.497C10.997 27.0109 10.8039 26.5447 10.4602 26.201C10.1165 25.8573 9.65027 25.6642 9.16417 25.6642ZM3.97725 25.6642C4.35592 24.591 5.05814 23.6617 5.98714 23.0043C6.91613 22.347 8.02614 21.994 9.16417 21.994C10.3022 21.994 11.4122 22.347 12.3412 23.0043C13.2702 23.6617 13.9724 24.591 14.3511 25.6642H27.4925C27.9786 25.6642 28.4448 25.8573 28.7885 26.201C29.1322 26.5447 29.3253 27.0109 29.3253 27.497C29.3253 27.9831 29.1322 28.4493 28.7885 28.793C28.4448 29.1367 27.9786 29.3298 27.4925 29.3298H14.3511C13.9724 30.403 13.2702 31.3323 12.3412 31.9897C11.4122 32.647 10.3022 33 9.16417 33C8.02614 33 6.91613 32.647 5.98714 31.9897C5.05814 31.3323 4.35592 30.403 3.97725 29.3298H1.83283C1.34674 29.3298 0.880548 29.1367 0.536825 28.793C0.193102 28.4493 0 27.9831 0 27.497C0 27.0109 0.193102 26.5447 0.536825 26.201C0.880548 25.8573 1.34674 25.6642 1.83283 25.6642H3.97725Z" fill="white"/>
</svg>
