<svg width="523" height="321" viewBox="0 0 523 321" fill="none" xmlns="http://www.w3.org/2000/svg">
<line x1="0.448479" y1="76.2401" x2="1.30597" y2="212.581" stroke="#A5730E" stroke-opacity="0.58" stroke-width="0.896975"/>
<line x1="395.117" y1="104.051" x2="395.975" y2="240.391" stroke="#A5730E" stroke-width="0.896975"/>
<line x1="137.686" y1="134.548" x2="138.543" y2="270.888" stroke="#A5730E" stroke-width="0.896975"/>
<line x1="267.747" y1="69.9657" x2="268.605" y2="206.306" stroke="#A5730E" stroke-opacity="0.53" stroke-width="0.896975"/>
<line x1="70.4123" y1="60.9916" x2="71.2698" y2="197.332" stroke="#A5730E" stroke-opacity="0.58" stroke-width="0.896975"/>
<line x1="465.081" y1="88.8021" x2="465.939" y2="225.143" stroke="#A5730E" stroke-width="0.896975"/>
<line x1="207.65" y1="119.299" x2="208.507" y2="255.64" stroke="#A5730E" stroke-width="0.896975"/>
<line x1="337.711" y1="54.7169" x2="338.569" y2="191.057" stroke="#A5730E" stroke-opacity="0.53" stroke-width="0.896975"/>
<line x1="19.2854" y1="56.5067" x2="20.1429" y2="192.847" stroke="#A5730E" stroke-opacity="0.58" stroke-width="0.896975"/>
<line x1="413.954" y1="84.3172" x2="414.812" y2="220.658" stroke="#A5730E" stroke-width="0.896975"/>
<line x1="156.522" y1="114.814" x2="157.379" y2="251.155" stroke="#A5730E" stroke-width="0.896975"/>
<line x1="286.583" y1="50.232" x2="287.441" y2="186.573" stroke="#A5730E" stroke-opacity="0.53" stroke-width="0.896975"/>
<line x1="88.3318" y1="177.606" x2="88.3318" y2="6.27448" stroke="#A5730E" stroke-opacity="0.58" stroke-width="0.896975"/>
<line x1="483.001" y1="205.417" x2="483.001" y2="34.085" stroke="#A5730E" stroke-width="0.896975"/>
<line x1="225.569" y1="235.914" x2="225.569" y2="64.5821" stroke="#A5730E" stroke-width="0.896975"/>
<line x1="355.631" y1="171.332" x2="355.631" y2="6.10352e-05" stroke="#A5730E" stroke-opacity="0.53" stroke-width="0.896975"/>
<line x1="39.9153" y1="90.5757" x2="39.9153" y2="261.935" stroke="#A5730E" stroke-opacity="0.58" stroke-width="0.896975"/>
<line x1="434.584" y1="118.386" x2="434.584" y2="289.746" stroke="#A5730E" stroke-width="0.896975"/>
<line x1="177.153" y1="148.883" x2="177.153" y2="320.243" stroke="#A5730E" stroke-width="0.896975"/>
<line x1="307.214" y1="84.3013" x2="307.214" y2="255.661" stroke="#A5730E" stroke-opacity="0.53" stroke-width="0.896975"/>
<line x1="108.085" y1="75.3431" x2="108.943" y2="211.684" stroke="#A5730E" stroke-opacity="0.58" stroke-width="0.896975"/>
<line x1="502.754" y1="103.154" x2="503.612" y2="239.494" stroke="#A5730E" stroke-width="0.896975"/>
<line x1="245.323" y1="133.651" x2="246.18" y2="269.991" stroke="#A5730E" stroke-width="0.896975"/>
<line x1="375.384" y1="69.0687" x2="376.242" y2="205.409" stroke="#A5730E" stroke-opacity="0.53" stroke-width="0.896975"/>
<line x1="56.9582" y1="53.8158" x2="57.8157" y2="190.156" stroke="#A5730E" stroke-opacity="0.58" stroke-width="0.896975"/>
<line x1="451.627" y1="81.6263" x2="452.485" y2="217.967" stroke="#A5730E" stroke-width="0.896975"/>
<line x1="194.196" y1="112.123" x2="195.053" y2="248.464" stroke="#A5730E" stroke-width="0.896975"/>
<line x1="324.256" y1="47.5411" x2="325.114" y2="183.882" stroke="#A5730E" stroke-opacity="0.53" stroke-width="0.896975"/>
<line x1="126.922" y1="38.567" x2="127.78" y2="174.907" stroke="#A5730E" stroke-opacity="0.58" stroke-width="0.896975"/>
<line x1="521.591" y1="66.3778" x2="522.449" y2="202.718" stroke="#A5730E" stroke-width="0.896975"/>
<line x1="264.159" y1="96.8749" x2="265.017" y2="233.215" stroke="#A5730E" stroke-width="0.896975"/>
</svg>
