<svg width="27" height="22" viewBox="0 0 27 22" fill="none" xmlns="http://www.w3.org/2000/svg">
<path d="M19.5599 0.493164C20.3151 0.493071 21.0421 0.779543 21.5941 1.29468C22.146 1.80982 22.4818 2.51522 22.5335 3.26831L22.5401 3.47221V18.3674C22.5398 18.5328 22.6015 18.6924 22.713 18.8146C22.8245 18.9369 22.9777 19.013 23.1425 19.0279C23.3073 19.0429 23.4718 18.9956 23.6035 18.8954C23.7352 18.7952 23.8245 18.6494 23.854 18.4866L23.8646 18.3674V4.48376C24.5559 4.56102 25.1985 4.8776 25.6808 5.37864C26.1632 5.87968 26.455 6.53361 26.5057 7.22712L26.5137 7.44426V17.3744C26.5137 18.4735 26.0931 19.531 25.3379 20.3299C24.5828 21.1288 23.5505 21.6086 22.4527 21.6708L22.209 21.6775H4.3279C3.22836 21.6775 2.17047 21.257 1.37125 20.5022C0.572032 19.7473 0.0920669 18.7154 0.0298162 17.618L0.0231934 17.3744V3.47221C0.0231006 2.71735 0.309682 1.9906 0.82502 1.43884C1.34036 0.887079 2.04602 0.55145 2.7994 0.499784L3.00337 0.493164H19.5599ZM9.62334 9.76129H4.98751C4.72404 9.76129 4.47137 9.86591 4.28507 10.0521C4.09878 10.2384 3.99412 10.4909 3.99412 10.7543V15.3884C3.99412 15.9365 4.43916 16.3814 4.98751 16.3814H9.62334C9.88681 16.3814 10.1395 16.2768 10.3258 16.0905C10.5121 15.9043 10.6167 15.6517 10.6167 15.3884V10.7543C10.6167 10.4909 10.5121 10.2384 10.3258 10.0521C10.1395 9.86591 9.88681 9.76129 9.62334 9.76129ZM17.5758 14.3954H14.2671L14.132 14.4046C13.8827 14.4389 13.6557 14.5665 13.4968 14.7617C13.338 14.9569 13.2592 15.205 13.2763 15.4561C13.2935 15.7071 13.4053 15.9422 13.5892 16.114C13.7732 16.2857 14.0154 16.3813 14.2671 16.3814H17.5758L17.7109 16.3721C17.9602 16.3378 18.1873 16.2102 18.3461 16.015C18.5049 15.8199 18.5837 15.5717 18.5666 15.3207C18.5494 15.0697 18.4376 14.8345 18.2537 14.6628C18.0698 14.491 17.8275 14.3954 17.5758 14.3954ZM8.62995 11.7473V14.3954H5.9809V11.7473H8.62995ZM17.5731 9.76129L14.2645 9.76791L14.1294 9.77586C13.8776 9.80771 13.6476 9.93467 13.4865 10.1307C13.3254 10.3267 13.2455 10.5769 13.2631 10.83C13.2807 11.083 13.3946 11.3198 13.5813 11.4916C13.768 11.6634 14.0134 11.7573 14.2671 11.7539L17.5771 11.7473L17.7109 11.7381C17.9603 11.7037 18.1875 11.576 18.3463 11.3807C18.5051 11.1854 18.5839 10.9371 18.5665 10.686C18.5492 10.4348 18.4371 10.1997 18.2529 10.028C18.0688 9.85637 17.8263 9.76103 17.5745 9.76129H17.5731ZM17.5745 5.13252H4.98751L4.85241 5.14179C4.60307 5.17609 4.37604 5.30371 4.21721 5.49888C4.05838 5.69405 3.97958 5.94221 3.99673 6.19322C4.01389 6.44423 4.12572 6.67938 4.30963 6.85114C4.49354 7.0229 4.73582 7.11847 4.98751 7.11855H17.5758L17.7109 7.11061C17.9624 7.07872 18.1921 6.95194 18.3532 6.75622C18.5142 6.5605 18.5942 6.31066 18.577 6.05785C18.5597 5.80504 18.4464 5.56839 18.2603 5.39636C18.0741 5.22434 17.8293 5.12995 17.5758 5.13252H17.5745Z" fill="white"/>
</svg>
