<svg width="25" height="25" viewBox="0 0 25 25" fill="none" xmlns="http://www.w3.org/2000/svg">
<g clip-path="url(#clip0)">
<path d="M21.5152 8.4203C21.5268 12.7436 21.5384 10.3557 21.5489 14.679C19.5649 13.2513 15.8965 13.6146 14.9896 16.0637C14.4184 17.606 14.8168 19.3816 16.0331 20.4717C17.3279 21.6332 19.3726 21.6116 20.9276 21.1008C22.3877 20.6207 23.5716 19.339 23.7945 17.8147C23.8109 17.7098 23.8154 17.6019 23.824 17.4936C23.8165 11.7751 23.8221 5.79049 23.8236 0.659668L9.06209 4.55212C9.01842 4.5801 8.9828 4.61899 8.95877 4.66496C8.93474 4.71093 8.92313 4.76237 8.92508 4.8142L8.96017 17.7826C6.97661 16.3545 3.30779 16.7174 2.39946 19.1662C1.82787 20.7096 2.22735 22.4841 3.44444 23.5753C4.73881 24.7368 6.7836 24.7144 8.33893 24.204C9.79944 23.7239 10.9814 22.4419 11.2062 20.9179C11.2222 20.813 11.2252 20.7047 11.2338 20.5976V18.7309C11.2305 16.1205 11.2286 13.4264 11.2338 11.223L21.5152 8.4203Z" fill="#A5730E"/>
<path d="M5.43175 19.1915C5.61693 19.0216 5.57287 18.6751 5.33394 18.4171C5.09612 18.1595 4.75227 18.0871 4.56709 18.257L3.7842 18.9779C3.59902 19.1474 3.64569 19.4946 3.88351 19.7526C4.12058 20.0102 4.46293 20.0819 4.64811 19.9113L5.43175 19.1915Z" fill="#A5730E"/>
<path d="M18.1365 15.8749C18.3217 15.7043 18.2792 15.3582 18.0402 15.1009C17.8009 14.8433 17.4586 14.7705 17.2734 14.9397L16.4905 15.6617C16.3053 15.8308 16.3505 16.1773 16.5894 16.4353C16.8261 16.694 17.17 16.7649 17.3551 16.5951L18.1365 15.8749Z" fill="#A5730E"/>
</g>
<defs>
<clipPath id="clip0">
<rect width="23.8938" height="23.8938" fill="white" transform="translate(0.929199 0.654785)"/>
</clipPath>
</defs>
</svg>
