<svg width="23" height="24" viewBox="0 0 23 24" fill="none" xmlns="http://www.w3.org/2000/svg">
<path d="M20.7 0.728516H6.9C5.635 0.728516 4.6 1.76312 4.6 3.02763V16.8223C4.6 18.0868 5.635 19.1214 6.9 19.1214H20.7C21.965 19.1214 23 18.0868 23 16.8223V3.02763C23 1.76312 21.965 0.728516 20.7 0.728516ZM18.4 6.4763H14.95V12.7989C14.95 13.5611 14.6471 14.2921 14.1079 14.831C13.5688 15.37 12.8375 15.6728 12.075 15.6728C11.3125 15.6728 10.5812 15.37 10.0421 14.831C9.5029 14.2921 9.2 13.5611 9.2 12.7989C9.2 12.0367 9.5029 11.3057 10.0421 10.7667C10.5812 10.2278 11.3125 9.92498 12.075 9.92498C12.7305 9.92498 13.317 10.1434 13.8 10.5112V4.17719H18.4V6.4763ZM2.3 5.32675H0V21.4205C0 22.6851 1.035 23.7197 2.3 23.7197H18.4V21.4205H2.3V5.32675Z" fill="#28B446"/>
</svg>
