<svg width="22" height="23" viewBox="0 0 22 23" fill="none" xmlns="http://www.w3.org/2000/svg">
<path class="mobile-nav-svg" fill-rule="evenodd" clip-rule="evenodd" d="M1.86349 7.87375C0.872016 7.87375 0.0682678 8.6775 0.0682678 9.66897V20.4403C0.0682678 21.4318 0.872016 22.2355 1.86349 22.2355H19.8157C20.8072 22.2355 21.6109 21.4318 21.6109 20.4403V9.66897C21.6109 8.6775 20.8072 7.87375 19.8157 7.87375H1.86349ZM8.59557 12.8108C8.59557 12.1216 9.34012 11.6895 9.93852 12.0314L13.515 14.0751C14.118 14.4197 14.118 15.2892 13.515 15.6338L9.93852 17.6775C9.34012 18.0195 8.59557 17.5874 8.59557 16.8982V12.8108Z" fill="white"/>
<rect class="mobile-nav-svg" x="0.965881" y="4.28331" width="19.7474" height="1.79522" rx="0.897611" fill="white"/>
<rect  class="mobile-nav-svg" x="1.86349" y="0.692863" width="17.9522" height="1.79522" rx="0.897611" fill="white"/>
</svg>
