<svg width="24" height="20" viewBox="0 0 24 20" fill="none" xmlns="http://www.w3.org/2000/svg">
<path class="mobile-nav-svg" d="M17.7424 0.590454C18.414 0.590372 19.0607 0.845275 19.5517 1.30365C20.0426 1.76202 20.3413 2.38968 20.3872 3.05978L20.3931 3.24121V16.495C20.3928 16.6422 20.4477 16.7842 20.5469 16.8929C20.646 17.0017 20.7824 17.0694 20.9289 17.0827C21.0755 17.096 21.2218 17.054 21.3389 16.9648C21.4561 16.8757 21.5356 16.7459 21.5618 16.601L21.5712 16.495V4.14129C22.1861 4.21004 22.7576 4.49173 23.1867 4.93756C23.6157 5.38338 23.8753 5.96525 23.9204 6.58234L23.9275 6.77555V15.6114C23.9275 16.5894 23.5533 17.5304 22.8817 18.2412C22.21 18.9521 21.2918 19.379 20.3154 19.4344L20.0986 19.4403H4.19404C3.21605 19.4403 2.2751 19.0662 1.56422 18.3945C0.853345 17.7228 0.426434 16.8046 0.371064 15.8282L0.365173 15.6114V3.24121C0.365091 2.56954 0.619994 1.92288 1.07837 1.43192C1.53674 0.94096 2.1644 0.642317 2.8345 0.596345L3.01593 0.590454H17.7424ZM8.90415 8.83725H4.78075C4.5464 8.83725 4.32166 8.93035 4.15596 9.09605C3.99025 9.26175 3.89716 9.4865 3.89716 9.72084V13.8442C3.89716 14.332 4.29301 14.7278 4.78075 14.7278H8.90415C9.13849 14.7278 9.36323 14.6347 9.52893 14.469C9.69464 14.3033 9.78773 14.0786 9.78773 13.8442V9.72084C9.78773 9.4865 9.69464 9.26175 9.52893 9.09605C9.36323 8.93035 9.13849 8.83725 8.90415 8.83725ZM15.9775 12.9607H13.0346L12.9144 12.9689C12.6927 12.9994 12.4907 13.113 12.3495 13.2866C12.2082 13.4603 12.1381 13.6811 12.1534 13.9045C12.1686 14.1278 12.2681 14.337 12.4317 14.4899C12.5952 14.6427 12.8107 14.7278 13.0346 14.7278H15.9775L16.0977 14.7196C16.3195 14.6891 16.5214 14.5755 16.6627 14.4018C16.804 14.2282 16.8741 14.0074 16.8588 13.784C16.8435 13.5607 16.7441 13.3514 16.5805 13.1986C16.4169 13.0458 16.2014 12.9607 15.9775 12.9607ZM8.02056 10.6044V12.9607H5.66433V10.6044H8.02056ZM15.9752 8.83725L13.0323 8.84314L12.9121 8.85021C12.6882 8.87855 12.4836 8.99152 12.3403 9.16594C12.197 9.34035 12.1259 9.56299 12.1416 9.78817C12.1573 10.0133 12.2585 10.224 12.4246 10.3769C12.5906 10.5297 12.8089 10.6133 13.0346 10.6103L15.9787 10.6044L16.0977 10.5962C16.3196 10.5657 16.5216 10.452 16.6629 10.2782C16.8042 10.1044 16.8742 9.88347 16.8588 9.66003C16.8434 9.43659 16.7437 9.22734 16.5798 9.0746C16.416 8.92186 16.2003 8.83702 15.9764 8.83725H15.9752ZM15.9764 4.71857H4.78075L4.66058 4.72681C4.4388 4.75733 4.23687 4.87089 4.09559 5.04455C3.95432 5.21821 3.88423 5.43903 3.89949 5.66238C3.91474 5.88573 4.01421 6.09496 4.1778 6.24779C4.34138 6.40063 4.55688 6.48567 4.78075 6.48574H15.9775L16.0977 6.47867C16.3214 6.4503 16.5258 6.33749 16.669 6.16334C16.8122 5.98919 16.8834 5.76687 16.8681 5.54192C16.8527 5.31697 16.7519 5.1064 16.5864 4.95333C16.4208 4.80026 16.203 4.71627 15.9775 4.71857H15.9764Z" fill="white"/>
</svg>
