<svg width="19" height="20" viewBox="0 0 19 20" fill="none" xmlns="http://www.w3.org/2000/svg">
<path d="M18.3341 9.24642C18.4194 8.96213 18.462 8.66837 18.462 8.36987C18.462 7.69943 18.2417 7.05504 17.8437 6.52911C17.929 6.24483 17.9716 5.95106 17.9716 5.65256C17.9716 4.98212 17.7513 4.33774 17.3533 3.81181C17.4386 3.52752 17.4813 3.23376 17.4813 2.93526C17.4813 1.71283 16.754 0.611216 15.6263 0.130298C15.4281 0.0448429 15.2143 0.00128839 14.9985 0.00236902H3.81418V10.1419H3.82128L5.85393 17.5049C6.18086 18.6918 7.27063 19.521 8.50254 19.521C9.20615 19.521 9.86237 19.2415 10.348 18.7297C10.8337 18.2204 11.0824 17.5523 11.0469 16.8487L10.9048 13.9371H16.5881C16.8748 13.9371 17.1543 13.8613 17.4007 13.7168C18.3578 13.1601 18.9524 12.1509 18.9524 11.0872C18.9524 10.4167 18.7321 9.77235 18.3341 9.24642ZM0 0.758097V9.38146C0 9.80078 0.338775 10.1396 0.758097 10.1396H2.29798V0H0.758097C0.338775 0 0 0.338775 0 0.758097Z" fill="white"/>
</svg>
