<svg width="85" height="77" viewBox="0 0 85 77" fill="none" xmlns="http://www.w3.org/2000/svg">
<path d="M33.9989 47H50.9989V21.5H63.7489L42.4989 0.25L21.2489 21.5H33.9989V47ZM82.1854 53.511C81.2929 52.559 75.3386 46.1883 73.6386 44.5265C72.4473 43.3845 70.8604 42.7479 69.2101 42.75H61.7429L74.7649 55.4745H59.7029C59.4982 55.4707 59.2961 55.521 59.117 55.6202C58.938 55.7195 58.7882 55.8642 58.6829 56.0397L55.2149 64H29.7829L26.3149 56.0397C26.2089 55.8648 26.059 55.7205 25.8801 55.6214C25.7012 55.5222 25.4994 55.4716 25.2949 55.4745H10.2329L23.2506 42.75H15.7876C14.1004 42.75 12.4896 43.4258 11.3591 44.5265C9.65913 46.1925 3.70488 52.5632 2.81238 53.511C0.734131 55.7253 -0.409119 57.489 0.134881 59.6693L2.51913 72.7337C3.06313 74.9183 5.45588 76.7117 7.84013 76.7117H77.1661C79.5504 76.7117 81.9431 74.9183 82.4871 72.7337L84.8714 59.6693C85.4069 57.489 84.2679 55.7253 82.1854 53.511Z" fill="black"/>
</svg>
