<svg width="23" height="23" viewBox="0 0 23 23" fill="none" xmlns="http://www.w3.org/2000/svg">
<path d="M11.0722 21.085C11.4597 21.0761 11.8315 20.9304 12.1219 20.6738C12.4123 20.4172 12.6026 20.0661 12.6591 19.6826H9.42383C9.48194 20.0765 9.68113 20.4358 9.98435 20.6938C10.2876 20.9517 10.6742 21.0908 11.0722 21.085Z" fill="white"/>
<path d="M20.2063 17.3021L19.9972 17.1176C19.4039 16.589 18.8846 15.9828 18.4533 15.3154C17.9823 14.3944 17.7 13.3885 17.623 12.3569V9.31839C17.6205 8.94931 17.5876 8.58107 17.5246 8.2174C16.4827 8.00325 15.5468 7.43565 14.8754 6.61068C14.204 5.78571 13.8383 4.75407 13.8402 3.69042V3.30292C13.1981 2.98688 12.5081 2.77906 11.7982 2.68784V1.91284C11.7982 1.69506 11.7117 1.4862 11.5577 1.33221C11.4037 1.17822 11.1948 1.09171 10.9771 1.09171C10.7593 1.09171 10.5504 1.17822 10.3964 1.33221C10.2424 1.4862 10.1559 1.69506 10.1559 1.91284V2.71859C8.56638 2.94282 7.11163 3.73454 6.06024 4.9476C5.00886 6.16065 4.43183 7.71312 4.43568 9.31839V12.3569C4.35865 13.3885 4.07634 14.3944 3.60533 15.3154C3.18146 15.9811 2.67053 16.5872 2.08608 17.1176L1.87695 17.3021V19.0366H20.2063V17.3021Z" fill="white"/>
<path d="M18.4524 6.76588C20.1508 6.76588 21.5277 5.38897 21.5277 3.69048C21.5277 1.99198 20.1508 0.615082 18.4524 0.615082C16.7539 0.615082 15.377 1.99198 15.377 3.69048C15.377 5.38897 16.7539 6.76588 18.4524 6.76588Z" fill="white"/>
</svg>
