<svg width="37" height="37" viewBox="0 0 37 37" fill="none" xmlns="http://www.w3.org/2000/svg">
<path d="M30.9108 14.5452H9.13065L25.4471 4.97243L23.638 1.81787L3.15789 13.7652C2.75061 14.0025 2.4127 14.3424 2.17788 14.7511C1.94306 15.1598 1.81956 15.623 1.8197 16.0943V30.909C1.8197 31.8734 2.20282 32.7983 2.88477 33.4803C3.56673 34.1622 4.49166 34.5453 5.45609 34.5453H30.9108C31.8752 34.5453 32.8001 34.1622 33.4821 33.4803C34.1641 32.7983 34.5472 31.8734 34.5472 30.909V18.1816C34.5472 17.2172 34.1641 16.2922 33.4821 15.6103C32.8001 14.9283 31.8752 14.5452 30.9108 14.5452ZM28.1835 30.909C27.4599 30.9087 26.7661 30.621 26.2546 30.1092C25.7432 29.5974 25.456 28.9034 25.4562 28.1798C25.4564 27.4563 25.7441 26.7624 26.2559 26.251C26.7677 25.7395 27.4618 25.4523 28.1853 25.4526C28.9089 25.4528 29.6027 25.7405 30.1142 26.2523C30.6256 26.7641 30.9128 27.4581 30.9126 28.1817C30.9124 28.9052 30.6247 29.5991 30.1129 30.1105C29.6011 30.622 28.9071 30.9092 28.1835 30.909ZM30.9108 21.818H5.45609V18.1816H30.9108V21.818Z" fill="#6600CC"/>
</svg>
