<svg width="20" height="20" viewBox="0 0 20 20" fill="none" xmlns="http://www.w3.org/2000/svg">
<path d="M19.1893 10.2757C19.5872 9.74985 19.8075 9.10555 19.8075 8.43519C19.8075 7.37161 19.213 6.36489 18.256 5.80349C18.0096 5.65898 17.7291 5.58293 17.4435 5.5832H11.7632L11.9053 2.67198C11.9385 1.96846 11.6898 1.30047 11.2066 0.791185C10.9694 0.540162 10.6833 0.34044 10.3659 0.20436C10.0485 0.0682793 9.70661 -0.00126732 9.36129 1.74819e-05C8.12953 1.74819e-05 7.0399 0.829085 6.71301 2.01584L4.67824 9.3827H4.67113V19.521H15.8588C16.0767 19.521 16.2899 19.4784 16.4865 19.3931C17.6141 18.9122 18.3413 17.8108 18.3413 16.5885C18.3413 16.29 18.2986 15.9963 18.2134 15.712C18.6113 15.1862 18.8316 14.5419 18.8316 13.8715C18.8316 13.573 18.789 13.2793 18.7037 12.9951C19.1017 12.4692 19.3219 11.8249 19.3219 11.1545C19.3172 10.8561 19.2746 10.56 19.1893 10.2757ZM0.857422 10.1407V18.763C0.857422 19.1823 1.19616 19.521 1.61543 19.521H3.15512V9.3827H1.61543C1.19616 9.3827 0.857422 9.72143 0.857422 10.1407Z" fill="white"/>
</svg>
