<svg width="18" height="18" viewBox="0 0 18 18" fill="none" xmlns="http://www.w3.org/2000/svg">
<g clip-path="url(#clip0)">
<path d="M4.19415 10.5581L3.60263 12.7663L1.44064 12.8121C0.794528 11.6137 0.42804 10.2426 0.42804 8.7855C0.42804 7.37653 0.770697 6.04786 1.37808 4.87793H1.37855L3.30332 5.23081L4.14649 7.14403C3.97001 7.65852 3.87383 8.21081 3.87383 8.7855C3.8739 9.40921 3.98688 10.0068 4.19415 10.5581Z" fill="#FBBB00"/>
<path d="M17.2732 7.19824C17.3708 7.71223 17.4216 8.24304 17.4216 8.78554C17.4216 9.39385 17.3577 9.98723 17.2358 10.5596C16.8222 12.5073 15.7414 14.208 14.2443 15.4116L14.2438 15.4111L11.8194 15.2874L11.4763 13.1455C12.4698 12.5629 13.2462 11.6511 13.6551 10.5596H9.11169V7.19824H13.7214H17.2732Z" fill="#518EF8"/>
<path d="M14.2435 15.4113L14.244 15.4117C12.7879 16.5821 10.9382 17.2824 8.92468 17.2824C5.68892 17.2824 2.87567 15.4738 1.44055 12.8123L4.19406 10.5583C4.9116 12.4734 6.75894 13.8366 8.92468 13.8366C9.85557 13.8366 10.7277 13.5849 11.476 13.1456L14.2435 15.4113Z" fill="#28B446"/>
<path d="M14.3482 2.24493L11.5957 4.49842C10.8212 4.0143 9.90565 3.73464 8.9248 3.73464C6.71005 3.73464 4.82815 5.1604 4.14655 7.14409L1.37858 4.87798H1.37811C2.79222 2.15156 5.64095 0.288818 8.9248 0.288818C10.9864 0.288818 12.8767 1.02319 14.3482 2.24493Z" fill="#F14336"/>
</g>
<defs>
<clipPath id="clip0">
<rect width="16.9935" height="16.9935" fill="white" transform="translate(0.42804 0.288818)"/>
</clipPath>
</defs>
</svg>
