<svg width="24" height="24" viewBox="0 0 24 24" fill="none" xmlns="http://www.w3.org/2000/svg">
<path fill-rule="evenodd" clip-rule="evenodd" d="M2.83986 8.27344C1.79097 8.27344 0.940674 9.12373 0.940674 10.1726V21.5619C0.940674 22.6108 1.79097 23.4611 2.83985 23.4611H21.8317C22.8805 23.4611 23.7308 22.6108 23.7308 21.5619V10.1726C23.7308 9.12373 22.8805 8.27344 21.8317 8.27344H2.83986ZM9.96174 13.4949C9.96174 12.7658 10.7493 12.3087 11.3823 12.6703L15.1653 14.8312C15.8035 15.1957 15.8035 16.1158 15.1653 16.4803L11.3823 18.6412C10.7493 19.0028 9.96174 18.5457 9.96174 17.8167V13.4949Z" fill="white"/>
<rect x="1.89026" y="4.47632" width="20.891" height="1.89845" rx="0.949226" fill="white"/>
<rect x="2.83984" y="0.679688" width="18.9918" height="1.89845" rx="0.949226" fill="white"/>
</svg>
