<svg width="37" height="37" viewBox="0 0 37 37" fill="none" xmlns="http://www.w3.org/2000/svg">
<path d="M5.14847 3.87122C5.0646 3.78735 4.96504 3.72083 4.85546 3.67544C4.74589 3.63005 4.62845 3.60669 4.50984 3.60669C4.39124 3.60669 4.2738 3.63005 4.16422 3.67544C4.05465 3.72083 3.95508 3.78735 3.87122 3.87122C3.78735 3.95508 3.72083 4.05465 3.67544 4.16422C3.63005 4.2738 3.60669 4.39124 3.60669 4.50984C3.60669 4.62845 3.63005 4.74589 3.67544 4.85546C3.72083 4.96504 3.78735 5.0646 3.87122 5.14847L10.1853 11.459C7.05816 13.5919 4.88112 16.8555 4.11296 20.5621C4.08879 20.678 4.08771 20.7976 4.10976 20.914C4.13181 21.0304 4.17657 21.1413 4.24149 21.2404C4.3064 21.3395 4.3902 21.4248 4.48809 21.4915C4.58598 21.5582 4.69605 21.605 4.81202 21.6292C4.92798 21.6533 5.04757 21.6544 5.16396 21.6324C5.28035 21.6103 5.39125 21.5655 5.49034 21.5006C5.58943 21.4357 5.67476 21.3519 5.74146 21.254C5.80816 21.1561 5.85493 21.0461 5.8791 20.9301C6.22346 19.2641 6.89673 17.6835 7.85949 16.2808C8.82225 14.8782 10.0552 13.6817 11.486 12.7615L14.3418 15.6154C13.5975 16.1493 12.9783 16.8387 12.5271 17.6358C12.0759 18.4329 11.8035 19.3187 11.7288 20.2316C11.6542 21.1445 11.7791 22.0627 12.0948 22.9225C12.4105 23.7824 12.9095 24.5632 13.5572 25.2109C14.2049 25.8586 14.9857 26.3576 15.8455 26.6733C16.7054 26.989 17.6236 27.1139 18.5365 27.0392C19.4494 26.9646 20.3352 26.6922 21.1323 26.241C21.9294 25.7898 22.6188 25.1706 23.1527 24.4263L30.9334 32.2089C31.1028 32.3782 31.3325 32.4734 31.572 32.4734C31.8116 32.4734 32.0413 32.3782 32.2107 32.2089C32.38 32.0395 32.4752 31.8098 32.4752 31.5702C32.4752 31.3307 32.38 31.101 32.2107 30.9316L5.15027 3.87122H5.14847Z" fill="#979797"/>
<path d="M18.2637 14.4375L24.3306 20.5044C24.2695 18.9149 23.6107 17.407 22.4859 16.2822C21.3611 15.1574 19.8532 14.4986 18.2637 14.4375Z" fill="#979797"/>
<path d="M13.5862 9.75967L15.0348 11.2083C16.0163 10.9534 17.0263 10.8242 18.0403 10.824C23.824 10.824 28.9673 15.022 30.1995 20.9302C30.2483 21.1646 30.3882 21.3701 30.5885 21.5014C30.7888 21.6326 31.033 21.679 31.2675 21.6302C31.5019 21.5814 31.7073 21.4414 31.8386 21.2411C31.9699 21.0409 32.0162 20.7966 31.9674 20.5622C30.5657 13.8422 24.7026 9.02002 18.0403 9.02002C16.4979 9.02002 14.9969 9.278 13.5862 9.75967Z" fill="#979797"/>
</svg>
