<svg width="20" height="17" viewBox="0 0 20 17" fill="none" xmlns="http://www.w3.org/2000/svg">
<path d="M18.3976 1.47692C18.2856 1.03709 17.7416 0.678223 17.1876 0.678223H2.79761C2.24261 0.678223 1.69861 1.03709 1.58761 1.47692L1.38661 2.67747H18.5976L18.3976 1.47692ZM19.4046 3.67709H0.579614C0.498842 3.67714 0.418972 3.69406 0.34512 3.72676C0.271268 3.75946 0.205062 3.80721 0.150743 3.86697C0.0964242 3.92672 0.0551901 3.99716 0.029682 4.07377C0.00417394 4.15038 -0.00504569 4.23147 0.00261371 4.31185L0.925614 15.9764C0.944001 16.1668 1.03263 16.3435 1.17424 16.4721C1.31585 16.6008 1.50028 16.6721 1.69161 16.6722H18.2926C18.4839 16.6721 18.6684 16.6008 18.81 16.4721C18.9516 16.3435 19.0402 16.1668 19.0586 15.9764L19.9816 4.31185C19.9893 4.23147 19.9801 4.15038 19.9545 4.07377C19.929 3.99716 19.8878 3.92672 19.8335 3.86697C19.7792 3.80721 19.713 3.75946 19.6391 3.72676C19.5653 3.69406 19.4854 3.67714 19.4046 3.67709ZM11.9346 11.1952C11.8066 11.4601 11.6766 11.4741 11.7326 11.1952C11.8786 10.4745 11.7796 8.92711 10.6896 8.75517V12.0479C10.6896 12.7217 10.3786 13.3095 9.55361 13.5754C8.75161 13.8313 7.85461 13.5644 7.64561 12.9896C7.43561 12.4138 7.90661 11.7141 8.69761 11.4262C9.13962 11.2652 9.65161 11.2232 9.99661 11.3562V6.67596H10.6906C10.6896 8.30834 13.5086 7.95048 11.9346 11.1952Z" fill="#1777F2"/>
</svg>
