<svg width="28" height="21" viewBox="0 0 28 21" fill="none" xmlns="http://www.w3.org/2000/svg">
<path d="M17.1237 0.752441V3.62761H0V0.752441H17.1237ZM17.1237 6.43591V9.31107H0V6.43591H17.1237ZM0 14.9945V12.1862H11.4381V14.9945H0ZM20 0.752441H27.0903V3.62761H22.8094V16.4656C22.8094 17.6245 22.3969 18.6275 21.5719 19.4745C20.7469 20.3214 19.7436 20.7449 18.5619 20.7449C17.3802 20.7449 16.3657 20.3214 15.5184 19.4745C14.6711 18.6275 14.2475 17.6134 14.2475 16.4321C14.2475 15.2509 14.6711 14.2479 15.5184 13.4232C16.3657 12.5986 17.369 12.1862 18.5284 12.1862C19.019 12.1862 19.5095 12.2754 20 12.4537V0.752441Z" fill="white"/>
</svg>
